<?xml version="1.0" encoding="UTF-8"?>
<svg version="1.1" xmlns="http://www.w3.org/2000/svg" viewBox="0 0 426 426">
<path d="M0 0 C0.86294174 -0.00705963 1.72588348 -0.01411926 2.61497498 -0.02139282 C38.61063239 -0.24911488 38.61063239 -0.24911488 53.671875 3.203125 C54.58308105 3.40711914 55.49428711 3.61111328 56.43310547 3.82128906 C113.68908601 16.96576981 162.67522222 50.93300882 194.0078125 100.82421875 C212.34696799 130.64683246 224.68244337 166.2825921 224.875 201.53125 C224.88205963 202.39419174 224.88911926 203.25713348 224.89639282 204.14622498 C225.12411488 240.14188239 225.12411488 240.14188239 221.671875 255.203125 C221.36588379 256.56993408 221.36588379 256.56993408 221.05371094 257.96435547 C207.90923019 315.22033601 173.94199118 364.20647222 124.05078125 395.5390625 C94.22816754 413.87821799 58.5924079 426.21369337 23.34375 426.40625 C22.48080826 426.41330963 21.61786652 426.42036926 20.72877502 426.42764282 C-15.26688239 426.65536488 -15.26688239 426.65536488 -30.328125 423.203125 C-31.69493408 422.89713379 -31.69493408 422.89713379 -33.08935547 422.58496094 C-90.34533601 409.44048019 -139.33147222 375.47324118 -170.6640625 325.58203125 C-189.00321799 295.75941754 -201.33869337 260.1236579 -201.53125 224.875 C-201.54183945 223.58058739 -201.54183945 223.58058739 -201.55264282 222.26002502 C-201.78036488 186.26436761 -201.78036488 186.26436761 -198.328125 171.203125 C-198.12413086 170.29191895 -197.92013672 169.38071289 -197.70996094 168.44189453 C-184.56548019 111.18591399 -150.59824118 62.19977778 -100.70703125 30.8671875 C-70.88441754 12.52803201 -35.2486579 0.19255663 0 0 Z " fill="#060A1C" transform="translate(201.328125,-0.203125)"/>
<path d="M0 0 C0.86294174 -0.00705963 1.72588348 -0.01411926 2.61497498 -0.02139282 C38.61063239 -0.24911488 38.61063239 -0.24911488 53.671875 3.203125 C54.58308105 3.40711914 55.49428711 3.61111328 56.43310547 3.82128906 C113.68908601 16.96576981 162.67522222 50.93300882 194.0078125 100.82421875 C212.34696799 130.64683246 224.68244337 166.2825921 224.875 201.53125 C224.88205963 202.39419174 224.88911926 203.25713348 224.89639282 204.14622498 C225.12411488 240.14188239 225.12411488 240.14188239 221.671875 255.203125 C221.36588379 256.56993408 221.36588379 256.56993408 221.05371094 257.96435547 C207.90923019 315.22033601 173.94199118 364.20647222 124.05078125 395.5390625 C94.22816754 413.87821799 58.5924079 426.21369337 23.34375 426.40625 C22.48080826 426.41330963 21.61786652 426.42036926 20.72877502 426.42764282 C-15.26688239 426.65536488 -15.26688239 426.65536488 -30.328125 423.203125 C-31.69493408 422.89713379 -31.69493408 422.89713379 -33.08935547 422.58496094 C-90.34533601 409.44048019 -139.33147222 375.47324118 -170.6640625 325.58203125 C-189.00321799 295.75941754 -201.33869337 260.1236579 -201.53125 224.875 C-201.54183945 223.58058739 -201.54183945 223.58058739 -201.55264282 222.26002502 C-201.78036488 186.26436761 -201.78036488 186.26436761 -198.328125 171.203125 C-198.12413086 170.29191895 -197.92013672 169.38071289 -197.70996094 168.44189453 C-184.56548019 111.18591399 -150.59824118 62.19977778 -100.70703125 30.8671875 C-70.88441754 12.52803201 -35.2486579 0.19255663 0 0 Z M-132.328125 102.203125 C-137.68193487 109.19097609 -138.47804427 115.00400135 -138.46856689 123.72970581 C-138.47153802 124.58658497 -138.47450914 125.44346413 -138.4775703 126.32630932 C-138.48623949 129.19655337 -138.48776403 132.06675562 -138.48925781 134.93701172 C-138.49388716 136.99533171 -138.49891198 139.05365085 -138.50430298 141.11196899 C-138.5174158 146.70287338 -138.52386951 152.29376577 -138.52831364 157.88468313 C-138.53124555 161.37751139 -138.53535054 164.87033638 -138.53981781 168.36316299 C-138.55348844 179.29122778 -138.5631578 190.21928508 -138.5670197 201.14735782 C-138.57150258 213.76311799 -138.58906302 226.37876993 -138.6180203 238.99449718 C-138.63962816 248.74664593 -138.64972347 258.49876419 -138.65106082 268.25093663 C-138.65210928 274.07556579 -138.65802627 279.90009315 -138.67588043 285.72469711 C-138.69234604 291.20269728 -138.6945239 296.68051893 -138.68574142 302.158535 C-138.6849703 304.16807533 -138.68932363 306.17762521 -138.69919968 308.18714142 C-138.71190012 310.93249939 -138.70605271 313.67722327 -138.69561768 316.4225769 C-138.70367408 317.21587556 -138.71173048 318.00917421 -138.72003102 318.82651222 C-138.63977689 327.86739557 -134.59207071 334.78288122 -128.328125 341.203125 C-122.85533514 345.09775792 -117.65106548 347.32352764 -110.90987873 347.33455276 C-110.02616575 347.33839391 -109.14245276 347.34223505 -108.23196059 347.3461926 C-107.26534112 347.34532612 -106.29872164 347.34445963 -105.30281067 347.34356689 C-103.75750114 347.34802358 -103.75750114 347.34802358 -102.18097323 347.3525703 C-98.71805277 347.36126363 -95.25516685 347.36276609 -91.79223633 347.36425781 C-89.31366909 347.36888556 -86.83510256 347.37391016 -84.35653687 347.37930298 C-77.61464759 347.39243368 -70.87277185 347.39891005 -64.13087296 347.40331364 C-59.9195857 347.40607757 -55.70830072 347.41031523 -51.497015 347.41481781 C-39.83287735 347.42701012 -28.16874154 347.43730913 -16.50459766 347.4406929 C-15.75819656 347.44091247 -15.01179546 347.44113203 -14.24277614 347.44135825 C-13.49460583 347.44157653 -12.74643552 347.44179481 -11.97559339 347.4420197 C-10.459559 347.44246316 -8.94352462 347.44290973 -7.42749023 347.44335938 C-6.29948613 347.44369152 -6.29948613 347.44369152 -5.14869406 347.44403037 C7.03116833 347.44797675 19.21097083 347.46542605 31.39081009 347.4887189 C43.90134986 347.51245064 56.4118596 347.5248956 68.92242223 347.52606082 C75.94431368 347.52697662 82.96612713 347.53270478 89.98799706 347.55088043 C96.59453511 347.56792093 103.20095143 347.56952039 109.80751419 347.56074142 C112.23063999 347.55997061 114.65377372 347.56431957 117.0768795 347.57419968 C120.38864328 347.58690987 123.69988216 347.58104691 127.01164246 347.57061768 C127.96710832 347.57867408 128.92257419 347.58673048 129.90699357 347.59503102 C140.13922099 347.51983877 147.00812706 344.81747374 154.43359375 337.75 C160.98012815 330.30088931 162.8213306 322.66213555 162.81904602 313.00680542 C162.82456105 311.75657001 162.82456105 311.75657001 162.8301875 310.48107731 C162.84121414 307.68383047 162.84506647 304.88662079 162.84887695 302.08935547 C162.85514241 300.08531069 162.86178929 298.08126708 162.86878967 296.07722473 C162.88982403 289.49159554 162.90019202 282.90596613 162.91015625 276.3203125 C162.91420415 274.05210483 162.91832108 271.78389727 162.92250633 269.51568985 C162.94155724 258.85832311 162.95578805 248.20096329 162.9641183 237.5435828 C162.97388836 225.2475914 163.00020238 212.95178013 163.04061919 200.6558522 C163.07079657 191.1482614 163.08558876 181.64072218 163.08889931 172.13308442 C163.09124809 166.45641788 163.10018625 160.7799438 163.12536049 155.1033287 C163.14867419 149.7599002 163.15286105 144.41679043 163.14259911 139.0733242 C163.14210443 137.11664074 163.1484047 135.15994141 163.16215515 133.2033062 C163.25133338 119.75666441 162.56340294 108.38958382 152.671875 98.203125 C144.85337723 92.05778576 137.52288562 90.90679961 127.796875 91.078125 C126.82234375 91.08714844 125.8478125 91.09617187 124.84375 91.10546875 C122.45286772 91.12890877 120.06250239 91.16172058 117.671875 91.203125 C117.65785645 92.23083008 117.65785645 92.23083008 117.64355469 93.27929688 C117.5894559 96.42126935 117.50588676 99.56181567 117.421875 102.703125 C117.40769531 103.78078125 117.39351562 104.8584375 117.37890625 105.96875 C117.14489201 113.64441696 116.00290367 119.25092548 110.99609375 125.19140625 C105.10304225 129.95929278 99.65610494 132.78983941 91.93359375 132.48828125 C85.42682312 131.66791121 79.4321701 128.70969878 74.671875 124.203125 C67.28477465 114.24173211 69.24969269 103.9151142 68.671875 91.203125 C31.381875 91.203125 -5.908125 91.203125 -44.328125 91.203125 C-44.658125 98.463125 -44.988125 105.723125 -45.328125 113.203125 C-49.2383533 122.97869574 -51.2001407 126.18666365 -59.515625 131.078125 C-66.78879761 133.22430708 -73.70415798 133.32785236 -80.703125 130.203125 C-87.19178814 126.53108412 -90.88974029 121.14808913 -93.328125 114.203125 C-93.64697266 111.52416992 -93.64697266 111.52416992 -93.7421875 108.68359375 C-93.80019531 107.1512207 -93.80019531 107.1512207 -93.859375 105.58789062 C-93.8903125 104.53279297 -93.92125 103.47769531 -93.953125 102.390625 C-94.01113281 100.77897461 -94.01113281 100.77897461 -94.0703125 99.13476562 C-94.16431113 96.49105412 -94.24997073 93.8473445 -94.328125 91.203125 C-97.64031732 91.085334 -100.95195992 91.01535345 -104.265625 90.953125 C-105.19181641 90.91960937 -106.11800781 90.88609375 -107.07226562 90.8515625 C-117.58889185 90.70396073 -125.20404931 94.53581914 -132.328125 102.203125 Z " fill="#05091A" transform="translate(201.328125,-0.203125)"/>
<path d="M0 0 C0.93779297 0.00322266 1.87558594 0.00644531 2.84179688 0.00976562 C4.30649414 0.02233398 4.30649414 0.02233398 5.80078125 0.03515625 C6.78884766 0.03966797 7.77691406 0.04417969 8.79492188 0.04882812 C11.23443599 0.06061322 13.67382814 0.07706614 16.11328125 0.09765625 C16.11739014 0.74202637 16.12149902 1.38639648 16.12573242 2.05029297 C16.15902468 5.02528906 16.22970365 7.99833223 16.30078125 10.97265625 C16.30658203 11.98585938 16.31238281 12.9990625 16.31835938 14.04296875 C16.54921128 22.04583491 18.16001689 29.34283284 24.16088867 35.04248047 C30.42816009 40.03466741 35.99834963 41.62387112 43.97265625 41.4765625 C50.23212066 40.72137836 55.76360398 37.94235775 60.05078125 33.28515625 C67.18519325 22.25924679 65.47284468 14.18726084 66.11328125 0.09765625 C103.40328125 0.09765625 140.69328125 0.09765625 179.11328125 0.09765625 C179.44328125 7.35765625 179.77328125 14.61765625 180.11328125 22.09765625 C183.82964236 32.00795253 186.7431994 35.80853427 196.11328125 40.09765625 C202.49607626 42.04453195 208.21622364 41.8342363 214.30078125 39.03515625 C220.74316422 35.49835814 224.70237916 31.03347467 227.11328125 24.09765625 C227.47379323 21.29990636 227.47379323 21.29990636 227.52734375 18.359375 C227.58535156 16.75932617 227.58535156 16.75932617 227.64453125 15.12695312 C227.67546875 14.02416016 227.70640625 12.92136719 227.73828125 11.78515625 C227.79628906 10.10196289 227.79628906 10.10196289 227.85546875 8.38476562 C227.94950136 5.62255773 228.03515466 2.86035225 228.11328125 0.09765625 C252.9409199 -0.79320575 252.9409199 -0.79320575 262.92578125 6.78515625 C269.03377926 12.47539024 272.8262733 20.7366591 273.37055016 29.00677776 C273.38406138 30.51371365 273.3867475 32.02077138 273.38070679 33.52775574 C273.3852379 34.3622493 273.38976901 35.19674286 273.39443743 36.0565241 C273.40707034 38.84527526 273.40546176 41.63383085 273.40380859 44.42260742 C273.40979463 46.42532603 273.41660035 48.42804234 273.42416382 50.43075562 C273.44182568 55.86692829 273.44651935 61.303038 273.44779539 66.73923659 C273.44921771 70.1381335 273.45348889 73.53701443 273.45878983 76.93590736 C273.47729236 88.80111328 273.48546036 100.66627428 273.48388672 112.53149414 C273.48268602 123.57867024 273.50377392 134.62565074 273.53537405 145.67277735 C273.56156049 155.16684389 273.57225298 164.66084665 273.5709759 174.15494901 C273.57046687 179.82098695 273.57611755 185.48685114 273.597332 191.15285301 C273.61675358 196.48565623 273.61681192 201.81812068 273.60229874 207.15093613 C273.60021425 209.10235783 273.60488993 211.05380096 273.61701965 213.00518608 C273.69270863 226.03106001 273.5256795 237.43480903 263.96875 247.37890625 C255.85323438 254.8964365 248.60232591 256.4002486 237.7339325 256.36508179 C236.70186843 256.3696129 235.66980437 256.37414401 234.60646564 256.37881243 C231.15515983 256.39145226 227.70401191 256.38983631 224.25268555 256.38818359 C221.77529701 256.39416907 219.29791034 256.40097467 216.82052612 256.40853882 C210.79355772 256.42436935 204.76665117 256.43064709 198.73966774 256.43176357 C193.83859886 256.43271534 188.93754285 256.43683202 184.03647804 256.44316483 C170.1280905 256.46076936 156.21973376 256.47000489 142.31133499 256.46850388 C141.56221017 256.46842397 140.81308534 256.46834405 140.04125977 256.46826172 C138.91619388 256.46813908 138.91619388 256.46813908 137.7683994 256.46801396 C125.6152438 256.4672012 113.46221217 256.4863383 101.30909242 256.51453845 C88.81765662 256.54329397 76.32628124 256.55707729 63.83481151 256.5553509 C56.82688553 256.55468794 49.81908955 256.5601391 42.81119347 256.581707 C36.21935314 256.60186513 29.62774001 256.60121788 23.0358696 256.58667374 C20.61961148 256.58458381 18.20333621 256.58929743 15.78710747 256.60139465 C12.48227746 256.61686626 9.17839111 256.60752535 5.87358093 256.59213257 C4.92307427 256.60241969 3.9725676 256.61270682 2.9932577 256.62330568 C-5.00550959 256.5412787 -11.49800515 254.37852118 -18.13671875 249.91015625 C-25.57082332 242.30709476 -28.03853544 236.19775499 -28.02716064 225.70478821 C-28.03013177 224.85017461 -28.03310289 223.995561 -28.03616405 223.11505002 C-28.04484767 220.24636787 -28.04635902 217.37772746 -28.04785156 214.5090332 C-28.05248001 212.45410574 -28.05750471 210.39917914 -28.06289673 208.34425354 C-28.07602105 202.75728775 -28.08246588 197.17033398 -28.08690739 191.58335519 C-28.08983836 188.09235933 -28.09394324 184.60136675 -28.09841156 181.11037254 C-28.11208724 170.18657169 -28.12175327 159.26277835 -28.12561345 148.33896953 C-28.13009302 135.73170935 -28.147636 123.12455766 -28.17661405 110.51733047 C-28.19823775 100.77111537 -28.20831812 91.02493078 -28.20965457 81.27869195 C-28.2107022 75.45845539 -28.21660102 69.6383208 -28.23447418 63.81810951 C-28.25096644 58.34093718 -28.25310467 52.86394333 -28.24433517 47.38675499 C-28.2435654 45.37966814 -28.2478997 43.37257165 -28.25779343 41.36550903 C-28.27053683 38.61860898 -28.2646231 35.8723388 -28.25421143 33.1254425 C-28.26226783 32.33728741 -28.27032423 31.54913232 -28.27862477 30.73709375 C-28.19234372 20.95704695 -25.00228447 14.30583215 -18.3046875 7.26953125 C-13.06323482 2.56153821 -7.06960972 -0.04284612 0 0 Z M-8.4931488 55.69095707 C-10.39128237 58.96903903 -10.39014196 61.3269024 -10.39465332 65.11277771 C-10.40089328 65.81912214 -10.40713325 66.52546657 -10.4135623 67.25321537 C-10.42951815 69.62024024 -10.41687876 71.98623897 -10.40429688 74.35327148 C-10.40971692 76.05016684 -10.41683892 77.74705749 -10.42553711 79.44393921 C-10.44378882 84.05351231 -10.436695 88.66272772 -10.42402077 93.27230716 C-10.413901 98.09463901 -10.42328375 102.91694003 -10.42956543 107.73927307 C-10.43684552 115.83901472 -10.42724539 123.93861056 -10.40820312 132.03833008 C-10.38644103 141.40309482 -10.39347947 150.76751114 -10.41550875 160.13226742 C-10.43366121 168.17060657 -10.4362216 176.20884084 -10.42575407 184.24719387 C-10.41951735 189.04897812 -10.41868827 193.85059862 -10.43190002 198.65237236 C-10.44345541 203.16769463 -10.43543859 207.68256788 -10.412323 212.19784164 C-10.40703391 213.85505871 -10.40855313 215.51231357 -10.41737366 217.16951561 C-10.42830564 219.43203753 -10.41459596 221.6931209 -10.39465332 223.95555115 C-10.39314522 225.2215084 -10.39163712 226.48746565 -10.39008331 227.79178524 C-9.797876 231.68113528 -8.62600621 233.32844791 -5.88671875 236.09765625 C-3.58268963 237.24967081 -2.28207234 237.22586167 0.28098774 237.23187733 C1.15970203 237.23633517 2.03841632 237.24079301 2.94375831 237.24538594 C4.40068234 237.2451094 4.40068234 237.2451094 5.88703918 237.24482727 C7.42789351 237.2503423 7.42789351 237.2503423 8.9998762 237.25596875 C12.46452204 237.26703946 15.92913792 237.27085514 19.39379883 237.2746582 C21.86870927 237.28092023 24.34361877 237.28756679 26.81852722 237.29457092 C34.26160691 237.31382282 41.70467864 237.32440234 49.14777592 237.33329871 C52.65125447 237.33768012 56.1547315 237.3430473 59.65820885 237.34828758 C71.30168373 237.36530031 82.94515767 237.37979521 94.58864307 237.38703632 C97.61093459 237.38894627 100.63322609 237.3908666 103.65551758 237.39282227 C104.40670995 237.39330601 105.15790231 237.39378975 105.93185809 237.39428815 C118.10486945 237.40259118 130.27778263 237.42793247 142.4507511 237.46040294 C154.94312764 237.49345428 167.43545425 237.51148332 179.92787474 237.51468056 C186.94410806 237.51684741 193.96019818 237.52562138 200.97638893 237.55114174 C207.5747016 237.57508644 214.17280251 237.57868654 220.77116585 237.56838036 C223.1959748 237.56788304 225.62079612 237.57426077 228.04556656 237.5879364 C231.35021494 237.60553502 234.65392465 237.59860794 237.95857239 237.58540344 C238.92316291 237.59637269 239.88775344 237.60734193 240.88157398 237.61864358 C245.05480567 237.57825042 247.47384473 237.47593921 251.12295055 235.31717205 C255.03929481 230.94986365 255.36499336 228.02198538 255.38070679 222.1517334 C255.38750346 221.10340906 255.38750346 221.10340906 255.39443743 220.03390646 C255.40709618 217.69245894 255.40546015 215.35124358 255.40380859 213.00976562 C255.40979281 211.330955 255.41659811 209.65214714 255.42416382 207.9733429 C255.44183899 203.41352455 255.44651975 198.85378125 255.44779539 194.29393196 C255.44969395 190.48906265 255.45705075 186.68421085 255.46413958 182.87934828 C255.48042588 173.90507082 255.4853082 164.9308335 255.48388672 155.95654297 C255.48268428 146.69289075 255.50380587 137.42947114 255.53537405 128.16587782 C255.56150228 120.21589544 255.57225551 112.26598922 255.5709759 104.31596422 C255.57046537 99.56616572 255.57619883 94.81657404 255.597332 90.06681824 C255.61665707 85.60160181 255.61687841 81.13679078 255.60229874 76.67156029 C255.60020259 75.03164772 255.60495932 73.39171015 255.61701965 71.75184059 C255.63240492 69.51527304 255.62321059 67.28011522 255.60775757 65.0435791 C255.6088471 63.79144875 255.60993664 62.53931839 255.61105919 61.24924469 C255.3077859 58.1005658 255.3077859 58.1005658 253.72055244 55.69528198 C249.60927745 53.17606621 245.6340344 53.54688532 240.90246582 53.58972168 C239.32736323 53.58036174 239.32736323 53.58036174 237.72044039 53.5708127 C234.19035384 53.5548164 230.66095144 53.56751339 227.13085938 53.58007812 C224.60476782 53.57465998 222.07867943 53.56753907 219.55259705 53.55883789 C213.39681893 53.54246424 207.24129553 53.5448989 201.08551395 53.55648845 C196.08324321 53.56551691 191.08102716 53.56674934 186.07875061 53.56239319 C185.36717962 53.56178026 184.65560864 53.56116732 183.92247489 53.56053582 C182.47699494 53.55925693 181.031515 53.55796008 179.58603507 53.55664545 C166.02730925 53.54523546 152.46869155 53.5583599 138.90998346 53.57984692 C127.27245435 53.59771831 115.63508482 53.59461432 103.99755859 53.57617188 C90.48782011 53.55477253 76.97817643 53.54633413 63.46842337 53.55862093 C62.02821956 53.55989515 60.58801573 53.56115263 59.14781189 53.56239319 C58.08486158 53.56331884 58.08486158 53.56331884 57.00043753 53.56426319 C52.0033661 53.56771892 47.00635473 53.561883 42.0092926 53.55247498 C35.28531071 53.54009411 28.56167733 53.54889107 21.83770943 53.572052 C19.3657284 53.57735408 16.89372207 53.57579989 14.42175102 53.56700134 C11.0555195 53.55612192 7.69026539 53.56971844 4.32409668 53.58972168 C3.33850281 53.58079879 2.35290895 53.57187591 1.3374486 53.56268263 C-3.84496999 53.61501498 -3.84496999 53.61501498 -8.4931488 55.69095707 Z " fill="#EBE5D8" transform="translate(90.88671875,90.90234375)"/>
<path d="M0 0 C3.33976396 1.19245854 4.88845414 2.51705876 7.40234375 4.99609375 C12.93521841 9.80496966 18.76542255 12.31555025 25.52734375 15.05859375 C34.18103751 18.61197983 40.85526409 21.77206043 46.96484375 29.05859375 C47.85816406 30.07759766 47.85816406 30.07759766 48.76953125 31.1171875 C55.70093698 39.62391272 57.73904631 49.2914433 56.96484375 60.05859375 C55.18426971 70.06300551 49.90983476 79.66805751 41.96484375 86.05859375 C39.00340798 85.72641749 38.11322865 85.20697865 35.96484375 83.05859375 C36.23351148 79.38680146 37.25690289 76.22668462 38.52734375 72.80859375 C40.79868235 66.07367931 41.2137727 59.89589571 38.08984375 53.37109375 C31.86397212 43.47265739 20.60329821 39.69062821 9.78759766 37.00708008 C8.52608887 36.69407959 7.26458008 36.3810791 5.96484375 36.05859375 C5.9748365 37.58836098 5.9748365 37.58836098 5.98503113 39.14903259 C6.04598771 48.7852693 6.09088606 58.4214666 6.12028027 68.05785275 C6.13590041 73.01138822 6.15707172 77.96476737 6.19116211 82.91821289 C6.22388611 87.70335478 6.2417242 92.4883468 6.24947548 97.273592 C6.25499565 99.09433919 6.26577498 100.91507868 6.28203392 102.73576164 C6.30398189 105.2965928 6.30680349 107.85681373 6.30541992 110.41772461 C6.31620575 111.16147842 6.32699158 111.90523224 6.33810425 112.67152405 C6.27903152 122.85237382 2.32465992 130.48858871 -4.62890625 137.71484375 C-13.06624201 145.51539945 -23.55139041 149.41850095 -34.91015625 149.37109375 C-36.05677734 149.39526367 -36.05677734 149.39526367 -37.2265625 149.41992188 C-45.34602369 149.42681446 -51.32516028 147.30753739 -57.34765625 141.74609375 C-58.16878906 141.00746094 -58.98992187 140.26882813 -59.8359375 139.5078125 C-65.15420972 133.58497647 -65.63587808 128.23719637 -65.44140625 120.53125 C-64.4130388 111.7406859 -58.6550054 105.54427294 -52.03515625 100.05859375 C-41.8788127 92.81810367 -32.53827202 89.89586439 -20.03515625 91.05859375 C-15.84850359 91.96277921 -11.87118856 93.14057759 -8.03515625 95.05859375 C-8.05181084 93.38395805 -8.05181084 93.38395805 -8.06880188 91.67549133 C-8.17015308 81.1550957 -8.24510984 70.6347991 -8.29421711 60.11402607 C-8.32031254 54.70512358 -8.35571015 49.29661514 -8.41235352 43.88793945 C-8.4666744 38.66837376 -8.49657719 33.44918712 -8.50954247 28.22936058 C-8.51878215 26.23780538 -8.53682526 24.24627095 -8.56380653 22.25487709 C-8.60009784 19.46544164 -8.60510157 16.67757295 -8.6027832 13.88793945 C-8.62075958 13.06434937 -8.63873596 12.24075928 -8.65725708 11.39221191 C-8.61882853 7.11988658 -8.38707568 5.5158878 -5.68937683 2.01042175 C-3.03515625 0.05859375 -3.03515625 0.05859375 0 0 Z " fill="#EAE4D7" transform="translate(219.03515625,161.94140625)"/>
<path d="M0 0 C4.2047033 2.41152101 7.25697268 5.45535521 9 10 C9.34252468 12.96167916 9.37582578 15.91521061 9.40625 18.89453125 C9.41765015 19.76011154 9.42905029 20.62569183 9.4407959 21.51750183 C9.45966363 23.34731176 9.47275108 25.17718915 9.48046875 27.00708008 C9.49986458 29.79304878 9.56191671 32.57605293 9.625 35.36132812 C9.63806356 37.14321173 9.64856314 38.92511634 9.65625 40.70703125 C9.6809436 41.53330521 9.70563721 42.35957916 9.7310791 43.21089172 C9.68888406 48.74619382 8.39971176 51.58698062 4.58239746 55.60014343 C0.49939746 59.2121401 -2.25744836 59.44194458 -7.49609375 59.3046875 C-11.31168819 58.8403874 -13.22846562 57.63955655 -16 55 C-21.02885885 47.81066249 -20.57840057 40.21046965 -20.46655273 31.77246094 C-20.43748363 29.37364952 -20.44598944 26.9770388 -20.45898438 24.578125 C-20.45274865 23.03905186 -20.444359 21.49998562 -20.43359375 19.9609375 C-20.43652939 19.25141937 -20.43946503 18.54190125 -20.44248962 17.81088257 C-20.33904032 12.31020481 -18.88433632 8.42914443 -15.52734375 4.1015625 C-10.78432091 -0.3035054 -6.37273213 -1.55233219 0 0 Z " fill="#EAE4D7" transform="translate(137,64)"/>
<path d="M0 0 C4.95597737 2.47798868 7.77513449 5.38047164 9.55932617 10.65283203 C10.20762219 14.10586134 10.20369827 17.55287241 10.23828125 21.0546875 C10.246353 21.83385529 10.25442474 22.61302307 10.26274109 23.415802 C10.27654411 25.06152139 10.28728311 26.70726895 10.29516602 28.35302734 C10.30669798 30.03084742 10.32716917 31.70863047 10.35668945 33.38623047 C10.39945045 35.81763494 10.41554438 38.2479533 10.42578125 40.6796875 C10.44328934 41.42362762 10.46079742 42.16756775 10.47883606 42.93405151 C10.45740463 48.11603199 9.23072952 50.99068521 6 55 C3.27020492 57.54382364 0.48835068 58.87035273 -3.2421875 59.1953125 C-8.85206389 58.87420846 -12.13824177 57.22954473 -16 53 C-18.51655986 48.04661064 -19.37715283 44.45239187 -19.36328125 38.81640625 C-19.36377975 38.15720688 -19.36427826 37.49800751 -19.36479187 36.8188324 C-19.36246803 35.43477338 -19.35284028 34.05070876 -19.33618164 32.66674805 C-19.31259632 30.57105898 -19.31563261 28.47664764 -19.32226562 26.38085938 C-19.28511689 8.28511689 -19.28511689 8.28511689 -13 2 C-8.75301782 -0.53391374 -4.83242961 -0.67956041 0 0 Z " fill="#EAE3D7" transform="translate(299,64)"/>
<path d="M0 0 C0.33 0 0.66 0 1 0 C1 28.71 1 57.42 1 87 C-0.65 86.34 -2.3 85.68 -4 85 C-2.02 84.505 -2.02 84.505 0 84 C0 56.28 0 28.56 0 0 Z " fill="#14121A" transform="translate(210,170)"/>
<path d="M0 0 C0 0.33 0 0.66 0 1 C-1.98 1 -3.96 1 -6 1 C-6.33 1.99 -6.66 2.98 -7 4 C-7.66 4 -8.32 4 -9 4 C-6.73455663 -1.01633889 -5.27613404 -1.24961069 0 0 Z " fill="#DEDBD4" transform="translate(221,163)"/>
<path d="M0 0 C0.99 0.33 1.98 0.66 3 1 C0.03 3.475 0.03 3.475 -3 6 C-3.66 5.67 -4.32 5.34 -5 5 C-3.35 3.35 -1.7 1.7 0 0 Z " fill="#DCD8D1" transform="translate(314,123)"/>
</svg>
