<?xml version="1.0" encoding="UTF-8"?>
<svg version="1.1" xmlns="http://www.w3.org/2000/svg" width="565" height="565">
<path d="M0 0 C3.14586469 0.00314877 6.29077479 -0.02035666 9.43652344 -0.0456543 C27.46991969 -0.10208817 45.21181998 1.71341668 62.85839844 5.50317383 C64.32140381 5.81617432 64.32140381 5.81617432 65.81396484 6.13549805 C100.7275106 13.91071305 133.52834928 28.18473466 163.04589844 48.31567383 C163.66303711 48.73316895 164.28017578 49.15066406 164.91601562 49.58081055 C174.17708696 55.88063808 182.66614486 62.89547393 191.04589844 70.31567383 C191.91859375 71.0762207 192.79128906 71.83676758 193.69042969 72.62036133 C204.39168265 82.05959254 214.25338257 92.06800519 223.04589844 103.31567383 C223.92597535 104.4066755 224.8075561 105.49646533 225.69042969 106.58520508 C261.96737381 151.58471899 285.98815291 211.00817405 286.24902344 269.20239258 C286.25472351 270.22130081 286.26042358 271.24020905 286.26629639 272.28999329 C286.2756911 274.44055157 286.28225819 276.5911239 286.28613281 278.74169922 C286.29573795 281.94957429 286.32677335 285.15677941 286.35839844 288.36450195 C286.43135548 302.57389498 285.3183509 316.2911933 283.04589844 330.31567383 C282.85237793 331.51361572 282.65885742 332.71155762 282.45947266 333.94580078 C281.97736936 336.68762157 281.44289824 339.40651616 280.85839844 342.12817383 C280.64973145 343.10351074 280.44106445 344.07884766 280.22607422 345.08374023 C272.45085921 379.99728599 258.17683761 412.79812467 238.04589844 442.31567383 C237.41965576 443.24138184 237.41965576 443.24138184 236.78076172 444.18579102 C230.48093418 453.44686235 223.46609833 461.93592025 216.04589844 470.31567383 C215.28535156 471.18836914 214.52480469 472.06106445 213.74121094 472.96020508 C204.30197973 483.66145804 194.29356708 493.52315796 183.04589844 502.31567383 C181.95489676 503.19575074 180.86510694 504.07733149 179.77636719 504.96020508 C134.77685327 541.2371492 75.35339821 565.2579283 17.15917969 565.51879883 C16.14027145 565.5244989 15.12136322 565.53019897 14.07157898 565.53607178 C11.92102069 565.54546649 9.77044837 565.55203358 7.61987305 565.5559082 C4.41199797 565.56551334 1.20479286 565.59654874 -2.00292969 565.62817383 C-16.21232271 565.70113087 -29.92962103 564.58812629 -43.95410156 562.31567383 C-45.15204346 562.12215332 -46.34998535 561.92863281 -47.58422852 561.72924805 C-50.3260493 561.24714475 -53.04494389 560.71267363 -55.76660156 560.12817383 C-56.74193848 559.91950684 -57.71727539 559.71083984 -58.72216797 559.49584961 C-102.50976726 549.74439092 -142.43008122 529.81169062 -176.95410156 501.31567383 C-177.46279785 500.89866211 -177.97149414 500.48165039 -178.49560547 500.05200195 C-192.23638249 488.7375169 -205.0500118 476.41510125 -215.95410156 462.31567383 C-216.82966807 461.22809274 -217.70739241 460.1422464 -218.58691406 459.05786133 C-254.87915057 414.07153868 -278.89637833 354.61819927 -279.15722656 296.42895508 C-279.16577667 294.90059273 -279.16577667 294.90059273 -279.17449951 293.34135437 C-279.18389422 291.19079608 -279.19046132 289.04022376 -279.19433594 286.88964844 C-279.20394107 283.68177337 -279.23497648 280.47456825 -279.26660156 277.2668457 C-279.33955861 263.05745268 -278.22655403 249.34015436 -275.95410156 235.31567383 C-275.76058105 234.11773193 -275.56706055 232.91979004 -275.36767578 231.68554688 C-274.88557248 228.94372609 -274.35110137 226.2248315 -273.76660156 223.50317383 C-273.45360107 222.04016846 -273.45360107 222.04016846 -273.13427734 220.54760742 C-262.68424499 173.62315805 -240.51351087 131.36332248 -208.95410156 95.31567383 C-208.21675781 94.46618164 -207.47941406 93.61668945 -206.71972656 92.74145508 C-197.25194423 82.01245357 -187.21645255 72.15254862 -175.95410156 63.31567383 C-175.18066406 62.67500977 -174.40722656 62.0343457 -173.61035156 61.37426758 C-161.60162949 51.46707187 -148.46165819 43.01841611 -134.95410156 35.31567383 C-134.33583496 34.95795898 -133.71756836 34.60024414 -133.08056641 34.23168945 C-103.94463271 17.51398143 -71.05720328 7.3511921 -37.95410156 2.31567383 C-36.11984619 2.03639038 -36.11984619 2.03639038 -34.24853516 1.75146484 C-22.84842737 0.15196707 -11.49821423 -0.02394722 0 0 Z " fill="#050A1F" transform="translate(278.9541015625,-0.315673828125)"/>
<path d="M0 0 C0.93779297 0.00322266 1.87558594 0.00644531 2.84179688 0.00976562 C4.30649414 0.02233398 4.30649414 0.02233398 5.80078125 0.03515625 C6.78884766 0.03966797 7.77691406 0.04417969 8.79492188 0.04882812 C11.23443599 0.06061322 13.67382814 0.07706614 16.11328125 0.09765625 C16.11739014 0.74202637 16.12149902 1.38639648 16.12573242 2.05029297 C16.15902468 5.02528906 16.22970365 7.99833223 16.30078125 10.97265625 C16.30658203 11.98585938 16.31238281 12.9990625 16.31835938 14.04296875 C16.54921128 22.04583491 18.16001689 29.34283284 24.16088867 35.04248047 C30.42816009 40.03466741 35.99834963 41.62387112 43.97265625 41.4765625 C50.23212066 40.72137836 55.76360398 37.94235775 60.05078125 33.28515625 C67.18519325 22.25924679 65.47284468 14.18726084 66.11328125 0.09765625 C103.40328125 0.09765625 140.69328125 0.09765625 179.11328125 0.09765625 C179.44328125 7.35765625 179.77328125 14.61765625 180.11328125 22.09765625 C183.82964236 32.00795253 186.7431994 35.80853427 196.11328125 40.09765625 C202.49607626 42.04453195 208.21622364 41.8342363 214.30078125 39.03515625 C220.74316422 35.49835814 224.70237916 31.03347467 227.11328125 24.09765625 C227.47379323 21.29990636 227.47379323 21.29990636 227.52734375 18.359375 C227.58535156 16.75932617 227.58535156 16.75932617 227.64453125 15.12695312 C227.67546875 14.02416016 227.70640625 12.92136719 227.73828125 11.78515625 C227.79628906 10.10196289 227.79628906 10.10196289 227.85546875 8.38476562 C227.94950136 5.62255773 228.03515466 2.86035225 228.11328125 0.09765625 C252.9409199 -0.79320575 252.9409199 -0.79320575 262.92578125 6.78515625 C269.03377926 12.47539024 272.8262733 20.7366591 273.37055016 29.00677776 C273.38406138 30.51371365 273.3867475 32.02077138 273.38070679 33.52775574 C273.3852379 34.3622493 273.38976901 35.19674286 273.39443743 36.0565241 C273.40707034 38.84527526 273.40546176 41.63383085 273.40380859 44.42260742 C273.40979463 46.42532603 273.41660035 48.42804234 273.42416382 50.43075562 C273.44182568 55.86692829 273.44651935 61.303038 273.44779539 66.73923659 C273.44921771 70.1381335 273.45348889 73.53701443 273.45878983 76.93590736 C273.47729236 88.80111328 273.48546036 100.66627428 273.48388672 112.53149414 C273.48268602 123.57867024 273.50377392 134.62565074 273.53537405 145.67277735 C273.56156049 155.16684389 273.57225298 164.66084665 273.5709759 174.15494901 C273.57046687 179.82098695 273.57611755 185.48685114 273.597332 191.15285301 C273.61675358 196.48565623 273.61681192 201.81812068 273.60229874 207.15093613 C273.60021425 209.10235783 273.60488993 211.05380096 273.61701965 213.00518608 C273.69270863 226.03106001 273.5256795 237.43480903 263.96875 247.37890625 C255.85323438 254.8964365 248.60232591 256.4002486 237.7339325 256.36508179 C236.70186843 256.3696129 235.66980437 256.37414401 234.60646564 256.37881243 C231.15515983 256.39145226 227.70401191 256.38983631 224.25268555 256.38818359 C221.77529701 256.39416907 219.29791034 256.40097467 216.82052612 256.40853882 C210.79355772 256.42436935 204.76665117 256.43064709 198.73966774 256.43176357 C193.83859886 256.43271534 188.93754285 256.43683202 184.03647804 256.44316483 C170.1280905 256.46076936 156.21973376 256.47000489 142.31133499 256.46850388 C141.56221017 256.46842397 140.81308534 256.46834405 140.04125977 256.46826172 C138.91619388 256.46813908 138.91619388 256.46813908 137.7683994 256.46801396 C125.6152438 256.4672012 113.46221217 256.4863383 101.30909242 256.51453845 C88.81765662 256.54329397 76.32628124 256.55707729 63.83481151 256.5553509 C56.82688553 256.55468794 49.81908955 256.5601391 42.81119347 256.581707 C36.21935314 256.60186513 29.62774001 256.60121788 23.0358696 256.58667374 C20.61961148 256.58458381 18.20333621 256.58929743 15.78710747 256.60139465 C12.48227746 256.61686626 9.17839111 256.60752535 5.87358093 256.59213257 C4.92307427 256.60241969 3.9725676 256.61270682 2.9932577 256.62330568 C-5.00550959 256.5412787 -11.49800515 254.37852118 -18.13671875 249.91015625 C-25.57082332 242.30709476 -28.03853544 236.19775499 -28.02716064 225.70478821 C-28.03013177 224.85017461 -28.03310289 223.995561 -28.03616405 223.11505002 C-28.04484767 220.24636787 -28.04635902 217.37772746 -28.04785156 214.5090332 C-28.05248001 212.45410574 -28.05750471 210.39917914 -28.06289673 208.34425354 C-28.07602105 202.75728775 -28.08246588 197.17033398 -28.08690739 191.58335519 C-28.08983836 188.09235933 -28.09394324 184.60136675 -28.09841156 181.11037254 C-28.11208724 170.18657169 -28.12175327 159.26277835 -28.12561345 148.33896953 C-28.13009302 135.73170935 -28.147636 123.12455766 -28.17661405 110.51733047 C-28.19823775 100.77111537 -28.20831812 91.02493078 -28.20965457 81.27869195 C-28.2107022 75.45845539 -28.21660102 69.6383208 -28.23447418 63.81810951 C-28.25096644 58.34093718 -28.25310467 52.86394333 -28.24433517 47.38675499 C-28.2435654 45.37966814 -28.2478997 43.37257165 -28.25779343 41.36550903 C-28.27053683 38.61860898 -28.2646231 35.8723388 -28.25421143 33.1254425 C-28.26226783 32.33728741 -28.27032423 31.54913232 -28.27862477 30.73709375 C-28.19234372 20.95704695 -25.00228447 14.30583215 -18.3046875 7.26953125 C-13.06323482 2.56153821 -7.06960972 -0.04284612 0 0 Z " fill="#060A1C" transform="translate(158.88671875,44.90234375)"/>
<path d="M0 0 C0.93779297 0.00322266 1.87558594 0.00644531 2.84179688 0.00976562 C4.30649414 0.02233398 4.30649414 0.02233398 5.80078125 0.03515625 C6.78884766 0.03966797 7.77691406 0.04417969 8.79492188 0.04882812 C11.23443599 0.06061322 13.67382814 0.07706614 16.11328125 0.09765625 C16.11739014 0.74202637 16.12149902 1.38639648 16.12573242 2.05029297 C16.15902468 5.02528906 16.22970365 7.99833223 16.30078125 10.97265625 C16.30658203 11.98585938 16.31238281 12.9990625 16.31835938 14.04296875 C16.54921128 22.04583491 18.16001689 29.34283284 24.16088867 35.04248047 C30.42816009 40.03466741 35.99834963 41.62387112 43.97265625 41.4765625 C50.23212066 40.72137836 55.76360398 37.94235775 60.05078125 33.28515625 C67.18519325 22.25924679 65.47284468 14.18726084 66.11328125 0.09765625 C103.40328125 0.09765625 140.69328125 0.09765625 179.11328125 0.09765625 C179.44328125 7.35765625 179.77328125 14.61765625 180.11328125 22.09765625 C183.82964236 32.00795253 186.7431994 35.80853427 196.11328125 40.09765625 C202.49607626 42.04453195 208.21622364 41.8342363 214.30078125 39.03515625 C220.74316422 35.49835814 224.70237916 31.03347467 227.11328125 24.09765625 C227.47379323 21.29990636 227.47379323 21.29990636 227.52734375 18.359375 C227.58535156 16.75932617 227.58535156 16.75932617 227.64453125 15.12695312 C227.67546875 14.02416016 227.70640625 12.92136719 227.73828125 11.78515625 C227.79628906 10.10196289 227.79628906 10.10196289 227.85546875 8.38476562 C227.94950136 5.62255773 228.03515466 2.86035225 228.11328125 0.09765625 C252.9409199 -0.79320575 252.9409199 -0.79320575 262.92578125 6.78515625 C269.03377926 12.47539024 272.8262733 20.7366591 273.37055016 29.00677776 C273.38406138 30.51371365 273.3867475 32.02077138 273.38070679 33.52775574 C273.3852379 34.3622493 273.38976901 35.19674286 273.39443743 36.0565241 C273.40707034 38.84527526 273.40546176 41.63383085 273.40380859 44.42260742 C273.40979463 46.42532603 273.41660035 48.42804234 273.42416382 50.43075562 C273.44182568 55.86692829 273.44651935 61.303038 273.44779539 66.73923659 C273.44921771 70.1381335 273.45348889 73.53701443 273.45878983 76.93590736 C273.47729236 88.80111328 273.48546036 100.66627428 273.48388672 112.53149414 C273.48268602 123.57867024 273.50377392 134.62565074 273.53537405 145.67277735 C273.56156049 155.16684389 273.57225298 164.66084665 273.5709759 174.15494901 C273.57046687 179.82098695 273.57611755 185.48685114 273.597332 191.15285301 C273.61675358 196.48565623 273.61681192 201.81812068 273.60229874 207.15093613 C273.60021425 209.10235783 273.60488993 211.05380096 273.61701965 213.00518608 C273.69270863 226.03106001 273.5256795 237.43480903 263.96875 247.37890625 C255.85323438 254.8964365 248.60232591 256.4002486 237.7339325 256.36508179 C236.70186843 256.3696129 235.66980437 256.37414401 234.60646564 256.37881243 C231.15515983 256.39145226 227.70401191 256.38983631 224.25268555 256.38818359 C221.77529701 256.39416907 219.29791034 256.40097467 216.82052612 256.40853882 C210.79355772 256.42436935 204.76665117 256.43064709 198.73966774 256.43176357 C193.83859886 256.43271534 188.93754285 256.43683202 184.03647804 256.44316483 C170.1280905 256.46076936 156.21973376 256.47000489 142.31133499 256.46850388 C141.56221017 256.46842397 140.81308534 256.46834405 140.04125977 256.46826172 C138.91619388 256.46813908 138.91619388 256.46813908 137.7683994 256.46801396 C125.6152438 256.4672012 113.46221217 256.4863383 101.30909242 256.51453845 C88.81765662 256.54329397 76.32628124 256.55707729 63.83481151 256.5553509 C56.82688553 256.55468794 49.81908955 256.5601391 42.81119347 256.581707 C36.21935314 256.60186513 29.62774001 256.60121788 23.0358696 256.58667374 C20.61961148 256.58458381 18.20333621 256.58929743 15.78710747 256.60139465 C12.48227746 256.61686626 9.17839111 256.60752535 5.87358093 256.59213257 C4.92307427 256.60241969 3.9725676 256.61270682 2.9932577 256.62330568 C-5.00550959 256.5412787 -11.49800515 254.37852118 -18.13671875 249.91015625 C-25.57082332 242.30709476 -28.03853544 236.19775499 -28.02716064 225.70478821 C-28.03013177 224.85017461 -28.03310289 223.995561 -28.03616405 223.11505002 C-28.04484767 220.24636787 -28.04635902 217.37772746 -28.04785156 214.5090332 C-28.05248001 212.45410574 -28.05750471 210.39917914 -28.06289673 208.34425354 C-28.07602105 202.75728775 -28.08246588 197.17033398 -28.08690739 191.58335519 C-28.08983836 188.09235933 -28.09394324 184.60136675 -28.09841156 181.11037254 C-28.11208724 170.18657169 -28.12175327 159.26277835 -28.12561345 148.33896953 C-28.13009302 135.73170935 -28.147636 123.12455766 -28.17661405 110.51733047 C-28.19823775 100.77111537 -28.20831812 91.02493078 -28.20965457 81.27869195 C-28.2107022 75.45845539 -28.21660102 69.6383208 -28.23447418 63.81810951 C-28.25096644 58.34093718 -28.25310467 52.86394333 -28.24433517 47.38675499 C-28.2435654 45.37966814 -28.2478997 43.37257165 -28.25779343 41.36550903 C-28.27053683 38.61860898 -28.2646231 35.8723388 -28.25421143 33.1254425 C-28.26226783 32.33728741 -28.27032423 31.54913232 -28.27862477 30.73709375 C-28.19234372 20.95704695 -25.00228447 14.30583215 -18.3046875 7.26953125 C-13.06323482 2.56153821 -7.06960972 -0.04284612 0 0 Z M-8.4931488 55.69095707 C-10.39128237 58.96903903 -10.39014196 61.3269024 -10.39465332 65.11277771 C-10.40089328 65.81912214 -10.40713325 66.52546657 -10.4135623 67.25321537 C-10.42951815 69.62024024 -10.41687876 71.98623897 -10.40429688 74.35327148 C-10.40971692 76.05016684 -10.41683892 77.74705749 -10.42553711 79.44393921 C-10.44378882 84.05351231 -10.436695 88.66272772 -10.42402077 93.27230716 C-10.413901 98.09463901 -10.42328375 102.91694003 -10.42956543 107.73927307 C-10.43684552 115.83901472 -10.42724539 123.93861056 -10.40820312 132.03833008 C-10.38644103 141.40309482 -10.39347947 150.76751114 -10.41550875 160.13226742 C-10.43366121 168.17060657 -10.4362216 176.20884084 -10.42575407 184.24719387 C-10.41951735 189.04897812 -10.41868827 193.85059862 -10.43190002 198.65237236 C-10.44345541 203.16769463 -10.43543859 207.68256788 -10.412323 212.19784164 C-10.40703391 213.85505871 -10.40855313 215.51231357 -10.41737366 217.16951561 C-10.42830564 219.43203753 -10.41459596 221.6931209 -10.39465332 223.95555115 C-10.39314522 225.2215084 -10.39163712 226.48746565 -10.39008331 227.79178524 C-9.797876 231.68113528 -8.62600621 233.32844791 -5.88671875 236.09765625 C-3.58268963 237.24967081 -2.28207234 237.22586167 0.28098774 237.23187733 C1.15970203 237.23633517 2.03841632 237.24079301 2.94375831 237.24538594 C4.40068234 237.2451094 4.40068234 237.2451094 5.88703918 237.24482727 C7.42789351 237.2503423 7.42789351 237.2503423 8.9998762 237.25596875 C12.46452204 237.26703946 15.92913792 237.27085514 19.39379883 237.2746582 C21.86870927 237.28092023 24.34361877 237.28756679 26.81852722 237.29457092 C34.26160691 237.31382282 41.70467864 237.32440234 49.14777592 237.33329871 C52.65125447 237.33768012 56.1547315 237.3430473 59.65820885 237.34828758 C71.30168373 237.36530031 82.94515767 237.37979521 94.58864307 237.38703632 C97.61093459 237.38894627 100.63322609 237.3908666 103.65551758 237.39282227 C104.40670995 237.39330601 105.15790231 237.39378975 105.93185809 237.39428815 C118.10486945 237.40259118 130.27778263 237.42793247 142.4507511 237.46040294 C154.94312764 237.49345428 167.43545425 237.51148332 179.92787474 237.51468056 C186.94410806 237.51684741 193.96019818 237.52562138 200.97638893 237.55114174 C207.5747016 237.57508644 214.17280251 237.57868654 220.77116585 237.56838036 C223.1959748 237.56788304 225.62079612 237.57426077 228.04556656 237.5879364 C231.35021494 237.60553502 234.65392465 237.59860794 237.95857239 237.58540344 C238.92316291 237.59637269 239.88775344 237.60734193 240.88157398 237.61864358 C245.05480567 237.57825042 247.47384473 237.47593921 251.12295055 235.31717205 C255.03929481 230.94986365 255.36499336 228.02198538 255.38070679 222.1517334 C255.38750346 221.10340906 255.38750346 221.10340906 255.39443743 220.03390646 C255.40709618 217.69245894 255.40546015 215.35124358 255.40380859 213.00976562 C255.40979281 211.330955 255.41659811 209.65214714 255.42416382 207.9733429 C255.44183899 203.41352455 255.44651975 198.85378125 255.44779539 194.29393196 C255.44969395 190.48906265 255.45705075 186.68421085 255.46413958 182.87934828 C255.48042588 173.90507082 255.4853082 164.9308335 255.48388672 155.95654297 C255.48268428 146.69289075 255.50380587 137.42947114 255.53537405 128.16587782 C255.56150228 120.21589544 255.57225551 112.26598922 255.5709759 104.31596422 C255.57046537 99.56616572 255.57619883 94.81657404 255.597332 90.06681824 C255.61665707 85.60160181 255.61687841 81.13679078 255.60229874 76.67156029 C255.60020259 75.03164772 255.60495932 73.39171015 255.61701965 71.75184059 C255.63240492 69.51527304 255.62321059 67.28011522 255.60775757 65.0435791 C255.6088471 63.79144875 255.60993664 62.53931839 255.61105919 61.24924469 C255.3077859 58.1005658 255.3077859 58.1005658 253.72055244 55.69528198 C249.60927745 53.17606621 245.6340344 53.54688532 240.90246582 53.58972168 C239.32736323 53.58036174 239.32736323 53.58036174 237.72044039 53.5708127 C234.19035384 53.5548164 230.66095144 53.56751339 227.13085938 53.58007812 C224.60476782 53.57465998 222.07867943 53.56753907 219.55259705 53.55883789 C213.39681893 53.54246424 207.24129553 53.5448989 201.08551395 53.55648845 C196.08324321 53.56551691 191.08102716 53.56674934 186.07875061 53.56239319 C185.36717962 53.56178026 184.65560864 53.56116732 183.92247489 53.56053582 C182.47699494 53.55925693 181.031515 53.55796008 179.58603507 53.55664545 C166.02730925 53.54523546 152.46869155 53.5583599 138.90998346 53.57984692 C127.27245435 53.59771831 115.63508482 53.59461432 103.99755859 53.57617188 C90.48782011 53.55477253 76.97817643 53.54633413 63.46842337 53.55862093 C62.02821956 53.55989515 60.58801573 53.56115263 59.14781189 53.56239319 C58.08486158 53.56331884 58.08486158 53.56331884 57.00043753 53.56426319 C52.0033661 53.56771892 47.00635473 53.561883 42.0092926 53.55247498 C35.28531071 53.54009411 28.56167733 53.54889107 21.83770943 53.572052 C19.3657284 53.57735408 16.89372207 53.57579989 14.42175102 53.56700134 C11.0555195 53.55612192 7.69026539 53.56971844 4.32409668 53.58972168 C3.33850281 53.58079879 2.35290895 53.57187591 1.3374486 53.56268263 C-3.84496999 53.61501498 -3.84496999 53.61501498 -8.4931488 55.69095707 Z " fill="#EBE5D8" transform="translate(158.88671875,44.90234375)"/>
<path d="M0 0 C3.33976396 1.19245854 4.88845414 2.51705876 7.40234375 4.99609375 C12.93521841 9.80496966 18.76542255 12.31555025 25.52734375 15.05859375 C34.18103751 18.61197983 40.85526409 21.77206043 46.96484375 29.05859375 C47.85816406 30.07759766 47.85816406 30.07759766 48.76953125 31.1171875 C55.70093698 39.62391272 57.73904631 49.2914433 56.96484375 60.05859375 C55.18426971 70.06300551 49.90983476 79.66805751 41.96484375 86.05859375 C39.00340798 85.72641749 38.11322865 85.20697865 35.96484375 83.05859375 C36.23351148 79.38680146 37.25690289 76.22668462 38.52734375 72.80859375 C40.79868235 66.07367931 41.2137727 59.89589571 38.08984375 53.37109375 C31.86397212 43.47265739 20.60329821 39.69062821 9.78759766 37.00708008 C8.52608887 36.69407959 7.26458008 36.3810791 5.96484375 36.05859375 C5.9748365 37.58836098 5.9748365 37.58836098 5.98503113 39.14903259 C6.04598771 48.7852693 6.09088606 58.4214666 6.12028027 68.05785275 C6.13590041 73.01138822 6.15707172 77.96476737 6.19116211 82.91821289 C6.22388611 87.70335478 6.2417242 92.4883468 6.24947548 97.273592 C6.25499565 99.09433919 6.26577498 100.91507868 6.28203392 102.73576164 C6.30398189 105.2965928 6.30680349 107.85681373 6.30541992 110.41772461 C6.31620575 111.16147842 6.32699158 111.90523224 6.33810425 112.67152405 C6.27903152 122.85237382 2.32465992 130.48858871 -4.62890625 137.71484375 C-13.06624201 145.51539945 -23.55139041 149.41850095 -34.91015625 149.37109375 C-36.05677734 149.39526367 -36.05677734 149.39526367 -37.2265625 149.41992188 C-45.34602369 149.42681446 -51.32516028 147.30753739 -57.34765625 141.74609375 C-58.16878906 141.00746094 -58.98992187 140.26882813 -59.8359375 139.5078125 C-65.15420972 133.58497647 -65.63587808 128.23719637 -65.44140625 120.53125 C-64.4130388 111.7406859 -58.6550054 105.54427294 -52.03515625 100.05859375 C-41.8788127 92.81810367 -32.53827202 89.89586439 -20.03515625 91.05859375 C-15.84850359 91.96277921 -11.87118856 93.14057759 -8.03515625 95.05859375 C-8.05181084 93.38395805 -8.05181084 93.38395805 -8.06880188 91.67549133 C-8.17015308 81.1550957 -8.24510984 70.6347991 -8.29421711 60.11402607 C-8.32031254 54.70512358 -8.35571015 49.29661514 -8.41235352 43.88793945 C-8.4666744 38.66837376 -8.49657719 33.44918712 -8.50954247 28.22936058 C-8.51878215 26.23780538 -8.53682526 24.24627095 -8.56380653 22.25487709 C-8.60009784 19.46544164 -8.60510157 16.67757295 -8.6027832 13.88793945 C-8.62075958 13.06434937 -8.63873596 12.24075928 -8.65725708 11.39221191 C-8.61882853 7.11988658 -8.38707568 5.5158878 -5.68937683 2.01042175 C-3.03515625 0.05859375 -3.03515625 0.05859375 0 0 Z " fill="#EAE4D7" transform="translate(287.03515625,115.94140625)"/>
<path d="M0 0 C3.96 0 7.92 0 12 0 C12.33 6.93 12.66 13.86 13 21 C14.7325 18.81375 16.465 16.6275 18.25 14.375 C18.78786133 13.69872559 19.32572266 13.02245117 19.87988281 12.32568359 C20.31655273 11.77219238 20.75322266 11.21870117 21.203125 10.6484375 C21.68620117 10.0404834 22.16927734 9.4325293 22.66699219 8.80615234 C24.20757811 6.80008963 24.20757811 6.80008963 25.90625 3.5625 C28 1 28 1 31.453125 0.4140625 C33.33257812 0.51847656 33.33257812 0.51847656 35.25 0.625 C37.14492187 0.70621094 37.14492187 0.70621094 39.078125 0.7890625 C40.04234375 0.85867188 41.0065625 0.92828125 42 1 C40.7029643 4.65920801 39.17417282 7.29161835 36.671875 10.25 C36.03765625 11.0234375 35.4034375 11.796875 34.75 12.59375 C33.41026061 14.20562395 32.06117053 15.80976899 30.703125 17.40625 C30.0740625 18.1796875 29.445 18.953125 28.796875 19.75 C27.92047363 20.79414063 27.92047363 20.79414063 27.02636719 21.859375 C25.70949475 24.01135881 25.70949475 24.01135881 26.67358398 26.53173828 C27.83792275 28.6983985 29.01899024 30.72691537 30.42578125 32.7421875 C31.12670898 33.75345703 31.12670898 33.75345703 31.84179688 34.78515625 C32.32712891 35.47480469 32.81246094 36.16445313 33.3125 36.875 C34.0230957 37.89787109 34.0230957 37.89787109 34.74804688 38.94140625 C36.63066819 41.64558188 38.5166846 44.34348722 40.47021484 46.99707031 C44 51.80215677 44 51.80215677 44 54 C44.66 54 45.32 54 46 54 C46.14767822 53.46955078 46.29535645 52.93910156 46.44750977 52.39257812 C48.66638312 44.70323986 51.38283863 37.20627886 54.13354492 29.69580078 C54.93550558 27.50544726 55.73273524 25.31341573 56.52929688 23.12109375 C59.23420713 15.69622068 62.01138898 8.31669589 65 1 C69.62 1 74.24 1 79 1 C83.18282038 11.4099774 87.0791596 21.8980383 90.75 32.5 C91.31448853 34.12687744 91.31448853 34.12687744 91.89038086 35.78662109 C94.07868518 42.15179818 96.1098407 48.53996188 98 55 C93.71 55 89.42 55 85 55 C84.01 52.03 83.02 49.06 82 46 C75.07 46 68.14 46 61 46 C60.34 48.97 59.68 51.94 59 55 C34.22446888 57.86323305 34.22446888 57.86323305 27.46484375 53.28173828 C22.35638983 47.77833887 19.35186638 41.05559914 17 34 C14.86102655 34.87739895 14.86102655 34.87739895 13 37 C12.33287457 40.04587337 12.30291257 43.07768398 12.25 46.1875 C12.22035156 47.03248047 12.19070312 47.87746094 12.16015625 48.74804688 C12.0895301 50.83151822 12.04249205 52.91576506 12 55 C8.04 55 4.08 55 0 55 C0 36.85 0 18.7 0 0 Z " fill="#F5BE08" transform="translate(80,415)"/>
<path d="M0 0 C31.74970379 0 31.74970379 0 41.0625 8.1875 C46.30409623 14.21142403 48.74977074 21.46838208 48.38671875 29.41796875 C47.25758093 36.95695965 44.59900363 43.77426328 39 49 C26.25706081 57.51850398 17.06851622 55 0 55 C0 36.85 0 18.7 0 0 Z " fill="#F7BE06" transform="translate(331,415)"/>
<path d="M0 0 C25 0 25 0 34 4 C39.18289425 9.29087121 40.3586791 13.1751418 40.28515625 20.359375 C39.73079335 25.49292732 37.61178639 29.48302457 33.875 33 C32 34 32 34 30 34 C30.60328125 34.92941406 31.2065625 35.85882813 31.828125 36.81640625 C32.63551332 38.06504167 33.44279952 39.31374314 34.25 40.5625 C34.64574219 41.17158203 35.04148437 41.78066406 35.44921875 42.40820312 C38.1110175 46.53180938 40.59811753 50.71958101 43 55 C37.96022219 56.10181377 32.86374649 57.09272421 28 55 C23.58131305 50.47529485 20.92349227 44.47122581 18.33935547 38.76586914 C16.84865266 36.39533624 16.84865266 36.39533624 12 36 C12 42.27 12 48.54 12 55 C8.04 55 4.08 55 0 55 C0 36.85 0 18.7 0 0 Z " fill="#F9BF07" transform="translate(339,335)"/>
<path d="M0 0 C28.47272727 0 28.47272727 0 34.9453125 5.71875 C39.38663313 10.59387404 40.40878058 14.83651331 40.3515625 21.359375 C39.64124286 26.69466475 36.67809709 30.54867279 32.6875 34 C31.8521875 34.495 31.8521875 34.495 31 35 C32.57893091 39.54593296 34.98381181 43.27171028 37.625 47.25 C42 53.87960123 42 53.87960123 42 55 C37.08835174 55.88032387 32.87234908 56.20653534 28 55 C23.78606302 51.31059694 21.45670793 45.93063578 19 41 C18.34 40.01 17.68 39.02 17 38 C15.35 37.67 13.7 37.34 12 37 C12 42.94 12 48.88 12 55 C8.04 55 4.08 55 0 55 C0 36.85 0 18.7 0 0 Z " fill="#F8BF07" transform="translate(440,415)"/>
<path d="M0 0 C12 0 12 0 15.27416992 2.82983398 C16.13563936 4.10747626 16.95321556 5.41553865 17.73046875 6.74609375 C18.4006176 7.77465233 18.4006176 7.77465233 19.08430481 8.82398987 C20.49306707 11.00533169 21.83973746 13.21806704 23.1875 15.4375 C24.13215784 16.92501625 25.08069295 18.41007774 26.03320312 19.89257812 C27.76319575 22.59415971 29.46869124 25.30813385 31.14916992 28.04077148 C32.71364292 30.78849254 32.71364292 30.78849254 34 32 C34.33 21.44 34.66 10.88 35 0 C38.96 0 42.92 0 47 0 C47 18.15 47 36.3 47 55 C43.04 55 39.08 55 35 55 C32.17715869 51.9495102 30.29478454 49.56458885 28.25488281 46.07421875 C26.16977609 42.62770772 23.88599994 39.31492769 21.63037109 35.97851562 C18.72997223 31.66813602 15.86911769 27.3312642 13 23 C12.67 33.56 12.34 44.12 12 55 C8.04 55 4.08 55 0 55 C0 36.85 0 18.7 0 0 Z " fill="#F9C006" transform="translate(391,335)"/>
<path d="M0 0 C11 0 11 0 13.54296875 1.984375 C14.08566406 2.89703125 14.62835938 3.8096875 15.1875 4.75 C16.13496094 6.25626953 16.13496094 6.25626953 17.1015625 7.79296875 C17.72804688 8.85128906 18.35453125 9.90960938 19 11 C20.34456696 13.02723319 21.69870169 15.04815423 23.0625 17.0625 C23.65160156 17.96097656 24.24070312 18.85945313 24.84765625 19.78515625 C27.82861168 24.2376541 30.92724596 28.61035138 34 33 C34.33 22.11 34.66 11.22 35 0 C38.96 0 42.92 0 47 0 C47 18.15 47 36.3 47 55 C35 55 35 55 32.4296875 53.12109375 C31.91664063 52.23550781 31.40359375 51.34992188 30.875 50.4375 C29.95074219 48.94476563 29.95074219 48.94476563 29.0078125 47.421875 C28.34523438 46.29265625 27.68265625 45.1634375 27 44 C25.71373566 42.03776485 24.39956773 40.09622045 23.08251953 38.15454102 C21.44966097 35.74414501 19.84646815 33.3149369 18.24511719 30.88354492 C16.50455454 28.25051731 14.75081456 25.62622184 13 23 C12.67 33.56 12.34 44.12 12 55 C8.04 55 4.08 55 0 55 C0 36.85 0 18.7 0 0 Z " fill="#F6BE07" transform="translate(272,415)"/>
<path d="M0 0 C4.62 0 9.24 0 14 0 C18.16431504 9.67426916 21.80788784 19.49020766 25.35864258 29.40307617 C26.32253818 32.09048718 27.29484306 34.77476206 28.26757812 37.45898438 C28.8833199 39.17169267 29.49857265 40.88457687 30.11328125 42.59765625 C30.54910271 43.79757957 30.54910271 43.79757957 30.99372864 45.02174377 C32.10124287 48.13211091 33 50.67211484 33 54 C28.71 54 24.42 54 20 54 C19.01 51.36 18.02 48.72 17 46 C10.4 45.67 3.8 45.34 -3 45 C-3.99 47.97 -4.98 50.94 -6 54 C-10.29 54 -14.58 54 -19 54 C-16.97100899 47.03169259 -14.70852446 40.20999722 -12.20703125 33.3984375 C-11.68069344 31.95472275 -11.68069344 31.95472275 -11.14372253 30.48184204 C-10.0359794 27.44524726 -8.92431129 24.41010732 -7.8125 21.375 C-7.05507721 19.30087666 -6.29791332 17.22665876 -5.54101562 15.15234375 C-3.6969993 10.10046521 -1.8494645 5.0498864 0 0 Z " fill="#F6BE07" transform="translate(399,416)"/>
<path d="M0 0 C4.2047033 2.41152101 7.25697268 5.45535521 9 10 C9.34252468 12.96167916 9.37582578 15.91521061 9.40625 18.89453125 C9.41765015 19.76011154 9.42905029 20.62569183 9.4407959 21.51750183 C9.45966363 23.34731176 9.47275108 25.17718915 9.48046875 27.00708008 C9.49986458 29.79304878 9.56191671 32.57605293 9.625 35.36132812 C9.63806356 37.14321173 9.64856314 38.92511634 9.65625 40.70703125 C9.6809436 41.53330521 9.70563721 42.35957916 9.7310791 43.21089172 C9.68888406 48.74619382 8.39971176 51.58698062 4.58239746 55.60014343 C0.49939746 59.2121401 -2.25744836 59.44194458 -7.49609375 59.3046875 C-11.31168819 58.8403874 -13.22846562 57.63955655 -16 55 C-21.02885885 47.81066249 -20.57840057 40.21046965 -20.46655273 31.77246094 C-20.43748363 29.37364952 -20.44598944 26.9770388 -20.45898438 24.578125 C-20.45274865 23.03905186 -20.444359 21.49998562 -20.43359375 19.9609375 C-20.43652939 19.25141937 -20.43946503 18.54190125 -20.44248962 17.81088257 C-20.33904032 12.31020481 -18.88433632 8.42914443 -15.52734375 4.1015625 C-10.78432091 -0.3035054 -6.37273213 -1.55233219 0 0 Z " fill="#EAE4D7" transform="translate(205,18)"/>
<path d="M0 0 C4.29 0 8.58 0 13 0 C13.02505615 1.16571533 13.0501123 2.33143066 13.07592773 3.5324707 C13.17004691 7.85436131 13.27025669 12.1760929 13.37231445 16.49780273 C13.41564622 18.36885866 13.45732257 20.23995369 13.49731445 22.11108398 C13.55505949 24.79943631 13.61874181 27.48759215 13.68359375 30.17578125 C13.70030624 31.01337479 13.71701874 31.85096832 13.73423767 32.71394348 C13.81914061 36.03673288 13.94250673 38.82752018 15 42 C19.08840133 42.9911276 22.8031194 43.44966578 27 43 C29.68622821 41.0180025 31.65031041 39.42265272 32.47207642 36.07943726 C32.67436406 33.77380629 32.71833244 31.51367543 32.70703125 29.19921875 C32.72215256 28.36284378 32.73727386 27.52646881 32.75285339 26.66474915 C32.79568438 24.00539087 32.80456356 21.34716862 32.8125 18.6875 C32.83564801 16.87952719 32.86101399 15.07158132 32.88867188 13.26367188 C32.95147838 8.8423477 32.98384958 4.42173081 33 0 C37.29 0 41.58 0 46 0 C46.07481328 4.94381496 46.12891154 9.88729189 46.16479492 14.83154297 C46.17977234 16.50933583 46.20016154 18.18709028 46.22631836 19.86474609 C46.556881 41.63002735 46.556881 41.63002735 40.6875 49.4375 C34.53748079 55.3014718 27.83466142 56.38740604 19.62890625 56.27734375 C13.95618752 55.67888457 8.96237042 53.46015423 5.125 49.1875 C0.69501647 42.5425247 -0.44151013 37.62239261 -0.29296875 29.78515625 C-0.28872391 28.92941513 -0.28447906 28.07367401 -0.28010559 27.19200134 C-0.26342789 24.4818358 -0.22579705 21.77243752 -0.1875 19.0625 C-0.17243902 17.2155056 -0.1587531 15.36849944 -0.14648438 13.52148438 C-0.11356026 9.01403116 -0.06185469 4.50714528 0 0 Z " fill="#F2BB08" transform="translate(280,335)"/>
<path d="M0 0 C4.29 0 8.58 0 13 0 C13.01458252 1.1960083 13.02916504 2.3920166 13.04418945 3.62426758 C13.10212586 8.05816675 13.17935874 12.49155558 13.26245117 16.92504883 C13.2957225 18.84456098 13.32374754 20.76417148 13.34643555 22.68383789 C13.37994121 25.44199572 13.43225403 28.19925043 13.48828125 30.95703125 C13.49467117 31.81649857 13.5010611 32.67596588 13.50764465 33.56147766 C13.53733589 34.76238289 13.53733589 34.76238289 13.56762695 35.98754883 C13.57873001 36.6914827 13.58983307 37.39541656 13.60127258 38.12068176 C14.12856774 40.60597713 14.97052533 41.49874303 17 43 C21.8603562 43.39196421 25.62575437 43.38595216 30 41 C31.66349319 37.67301363 31.24378057 33.93570615 31.31640625 30.2734375 C31.33718735 29.41062164 31.35796844 28.54780579 31.37937927 27.65884399 C31.44486034 24.89764507 31.50375298 22.13634962 31.5625 19.375 C31.6056866 17.50519828 31.64930093 15.63540638 31.69335938 13.765625 C31.80054024 9.17718272 31.90181175 4.58864317 32 0 C36.29 0 40.58 0 45 0 C45.07466663 5.24695799 45.12884421 10.49360043 45.16479492 15.7409668 C45.17979643 17.52259719 45.20020433 19.30419119 45.22631836 21.08569336 C45.26308509 23.66008535 45.27981285 26.2339853 45.29296875 28.80859375 C45.30845261 29.59334579 45.32393646 30.37809784 45.33988953 31.18663025 C45.3418318 37.70201665 44.22849323 44.04020523 40.23828125 49.33984375 C33.02352882 55.32530773 26.30298155 56.83155142 17 56 C11.8221639 54.78168562 6.83608298 52.72789471 3.76953125 48.171875 C0.2323716 41.48064158 -0.14877676 35.03178339 -0.09765625 27.5390625 C-0.0962413 26.74849457 -0.09482635 25.95792664 -0.09336853 25.1434021 C-0.08780504 22.63722834 -0.07525944 20.13114642 -0.0625 17.625 C-0.05748028 15.91797005 -0.0529182 14.21093868 -0.04882812 12.50390625 C-0.03784759 8.33590252 -0.02060839 4.16796679 0 0 Z " fill="#F3BC07" transform="translate(142,335)"/>
<path d="M0 0 C4.95597737 2.47798868 7.77513449 5.38047164 9.55932617 10.65283203 C10.20762219 14.10586134 10.20369827 17.55287241 10.23828125 21.0546875 C10.246353 21.83385529 10.25442474 22.61302307 10.26274109 23.415802 C10.27654411 25.06152139 10.28728311 26.70726895 10.29516602 28.35302734 C10.30669798 30.03084742 10.32716917 31.70863047 10.35668945 33.38623047 C10.39945045 35.81763494 10.41554438 38.2479533 10.42578125 40.6796875 C10.44328934 41.42362762 10.46079742 42.16756775 10.47883606 42.93405151 C10.45740463 48.11603199 9.23072952 50.99068521 6 55 C3.27020492 57.54382364 0.48835068 58.87035273 -3.2421875 59.1953125 C-8.85206389 58.87420846 -12.13824177 57.22954473 -16 53 C-18.61902952 47.91174506 -19.46710874 43.68092117 -19.46875 37.94140625 C-19.47636353 37.1934227 -19.48397705 36.44543915 -19.49182129 35.67478943 C-19.50256251 34.10248124 -19.50549988 32.53010205 -19.50097656 30.95776367 C-19.50000368 28.57152778 -19.54169734 26.18850767 -19.5859375 23.80273438 C-19.64941586 15.64362733 -19.56140058 9.45222373 -14 3 C-9.88536765 -0.65745098 -5.27144215 -0.83673685 0 0 Z " fill="#E9E3D6" transform="translate(367,18)"/>
<path d="M0 0 C3.96 0 7.92 0 12 0 C12.33 6.93 12.66 13.86 13 21 C16.76995841 15.96027906 16.76995841 15.96027906 20.53808594 10.91918945 C21.54272426 9.57791928 22.55501631 8.24236151 23.57324219 6.91137695 C24.76025939 5.32117201 25.86092371 3.66695683 26.9375 2 C29 0 29 0 32.453125 -0.48828125 C34.33257812 -0.40126953 34.33257812 -0.40126953 36.25 -0.3125 C37.51328125 -0.26738281 38.7765625 -0.22226562 40.078125 -0.17578125 C41.04234375 -0.11777344 42.0065625 -0.05976563 43 0 C41.5278206 3.24036475 39.67878143 5.81914601 37.453125 8.58984375 C36.77378906 9.45673828 36.09445313 10.32363281 35.39453125 11.21679688 C33.96072633 13.0358226 32.51528984 14.84573796 31.05859375 16.64648438 C30.04732422 17.94875977 30.04732422 17.94875977 29.015625 19.27734375 C28.38946289 20.06359131 27.76330078 20.84983887 27.11816406 21.65991211 C25.70843953 23.97134093 25.70843953 23.97134093 26.63037109 26.52026367 C27.95249048 28.91398321 29.32828593 31.15984003 30.8984375 33.3984375 C31.46046875 34.20796875 32.0225 35.0175 32.6015625 35.8515625 C33.47941406 37.10066406 33.47941406 37.10066406 34.375 38.375 C38.17360396 43.80157708 41.81862242 49.18575821 45 55 C39.88711146 56.20927239 34.93790961 57.10750352 30 55 C24.45834223 49.88745289 20.27317487 42.7537986 17 36 C17 35.34 17 34.68 17 34 C14.86102655 34.87739895 14.86102655 34.87739895 13 37 C12.33287457 40.04587337 12.30291257 43.07768398 12.25 46.1875 C12.22035156 47.03248047 12.19070312 47.87746094 12.16015625 48.74804688 C12.0895301 50.83151822 12.04249205 52.91576506 12 55 C8.04 55 4.08 55 0 55 C0 36.85 0 18.7 0 0 Z " fill="#F9C007" transform="translate(92,335)"/>
<path d="M0 0 C3.96 0 7.92 0 12 0 C12.33 6.93 12.66 13.86 13 21 C14.7325 18.81375 16.465 16.6275 18.25 14.375 C18.78786133 13.69872559 19.32572266 13.02245117 19.87988281 12.32568359 C20.31655273 11.77219238 20.75322266 11.21870117 21.203125 10.6484375 C21.68620117 10.0404834 22.16927734 9.4325293 22.66699219 8.80615234 C24.20757811 6.80008963 24.20757811 6.80008963 25.90625 3.5625 C28 1 28 1 31.453125 0.4140625 C33.33257812 0.51847656 33.33257812 0.51847656 35.25 0.625 C37.14492187 0.70621094 37.14492187 0.70621094 39.078125 0.7890625 C40.04234375 0.85867188 41.0065625 0.92828125 42 1 C40.7029643 4.65920801 39.17417282 7.29161835 36.671875 10.25 C36.03765625 11.0234375 35.4034375 11.796875 34.75 12.59375 C33.41026061 14.20562395 32.06117053 15.80976899 30.703125 17.40625 C30.0740625 18.1796875 29.445 18.953125 28.796875 19.75 C27.92047363 20.79414063 27.92047363 20.79414063 27.02636719 21.859375 C25.70949475 24.01135881 25.70949475 24.01135881 26.67358398 26.53173828 C27.83792275 28.6983985 29.01899024 30.72691537 30.42578125 32.7421875 C31.12670898 33.75345703 31.12670898 33.75345703 31.84179688 34.78515625 C32.32712891 35.47480469 32.81246094 36.16445313 33.3125 36.875 C34.0230957 37.89787109 34.0230957 37.89787109 34.74804688 38.94140625 C36.63066819 41.64558188 38.5166846 44.34348722 40.47021484 46.99707031 C44 51.80215677 44 51.80215677 44 54 C41.93933896 54.1357683 39.87607243 54.23233903 37.8125 54.3125 C36.66394531 54.37050781 35.51539063 54.42851562 34.33203125 54.48828125 C29.96015421 53.84761932 28.76523021 52.38382929 26 49 C24.53157571 46.99523634 23.11399328 44.95222641 21.75 42.875 C21.06421875 41.84117187 20.3784375 40.80734375 19.671875 39.7421875 C18 37 18 37 17 34 C14.86102655 34.87739895 14.86102655 34.87739895 13 37 C12.33287457 40.04587337 12.30291257 43.07768398 12.25 46.1875 C12.22035156 47.03248047 12.19070312 47.87746094 12.16015625 48.74804688 C12.0895301 50.83151822 12.04249205 52.91576506 12 55 C8.04 55 4.08 55 0 55 C0 36.85 0 18.7 0 0 Z " fill="#F7BF07" transform="translate(80,415)"/>
<path d="M0 0 C11.55 0 23.1 0 35 0 C35 3.63 35 7.26 35 11 C27.41 11 19.82 11 12 11 C12 14.63 12 18.26 12 22 C18.93 22 25.86 22 33 22 C33 25.3 33 28.6 33 32 C26.07 32 19.14 32 12 32 C12 35.63 12 39.26 12 43 C19.59 43 27.18 43 35 43 C35 46.63 35 50.26 35 54 C23.45 54 11.9 54 0 54 C0 36.18 0 18.36 0 0 Z " fill="#FAC106" transform="translate(227,416)"/>
<path d="M0 0 C14.19 0 28.38 0 43 0 C43 3.63 43 7.26 43 11 C38.05 11 33.1 11 28 11 C28 25.52 28 40.04 28 55 C23.71 55 19.42 55 15 55 C15 40.81 15 26.62 15 12 C10.05 12 5.1 12 0 12 C0 8.04 0 4.08 0 0 Z " fill="#F3BB07" transform="translate(229,335)"/>
<path d="M0 0 C3.96 0 7.92 0 12 0 C12 14.52 12 29.04 12 44 C18.93 44 25.86 44 33 44 C33 47.63 33 51.26 33 55 C21.78 55 10.56 55 -1 55 C-1.02290196 47.32784395 -1.0428312 39.65580553 -1.05493164 31.98364258 C-1.05997377 29.37133381 -1.06680725 26.75902789 -1.07543945 24.14672852 C-1.08751036 20.40119732 -1.09322935 16.65570328 -1.09765625 12.91015625 C-1.10281754 11.73413345 -1.10797882 10.55811066 -1.11329651 9.34645081 C-1.11340981 7.72488319 -1.11340981 7.72488319 -1.11352539 6.07055664 C-1.115746 5.11347305 -1.11796661 4.15638947 -1.12025452 3.17030334 C-1 1 -1 1 0 0 Z " fill="#F0B908" transform="translate(186,415)"/>
<path d="M0 0 C3.96 0 7.92 0 12 0 C12 14.52 12 29.04 12 44 C18.93 44 25.86 44 33 44 C33 47.63 33 51.26 33 55 C22.11 55 11.22 55 0 55 C0 36.85 0 18.7 0 0 Z " fill="#F9C006" transform="translate(199,335)"/>
<path d="M0 0 C3.96 0 7.92 0 12 0 C12 18.15 12 36.3 12 55 C8.04 55 4.08 55 0 55 C0 36.85 0 18.7 0 0 Z " fill="#FBC306" transform="translate(452,335)"/>
<path d="M0 0 C14.77777778 0 14.77777778 0 19 4 C22.29547146 7.6363823 22.87972926 10.43648039 23.25 15.25 C22.90540616 20.41890762 21.86528303 25.07039687 18.1875 28.875 C11.6025941 32.26152303 8.03449366 32 0 32 C0 21.44 0 10.88 0 0 Z " fill="#080C24" transform="translate(343,427)"/>
<path d="M0 0 C10.34850166 -0.36958935 10.34850166 -0.36958935 13.29296875 1.30078125 C15 3 15 3 16.0625 6.375 C16 10 16 10 14 12.9375 C10.3103219 15.47415369 8.39639528 15.47960676 4 15 C2.68 14.67 1.36 14.34 0 14 C0 9.38 0 4.76 0 0 Z " fill="#0E0F1E" transform="translate(351,346)"/>
<path d="M0 0 C9.6092603 -0.43026539 9.6092603 -0.43026539 14 3 C15.87264676 4.87264676 15.23607378 7.49759947 15.328125 9.9921875 C15 12 15 12 13.87109375 13.74609375 C9.96447671 16.36409807 4.47981492 15.14451016 0 15 C0 10.05 0 5.1 0 0 Z " fill="#040924" transform="translate(452,426)"/>
<path d="M0 0 C0.94875 0.04125 1.8975 0.0825 2.875 0.125 C2.875 4.125 2.875 4.125 1.73046875 5.828125 C-1.91324046 9.20730263 -4.73537926 10.61857284 -9.75 10.9375 C-12.87677513 10.77836564 -14.51995419 10.62855425 -16.94140625 8.61328125 C-18.75645565 6.14667566 -20.125 4.238265 -20.125 1.125 C-17.485 1.125 -14.845 1.125 -12.125 1.125 C-11.795 2.115 -11.465 3.105 -11.125 4.125 C-7.05759875 2.88709527 -3.98017986 0.15920719 0 0 Z " fill="#EABB11" transform="translate(464.125,400.875)"/>
<path d="M0 0 C0.66 0 1.32 0 2 0 C2.83887056 2.43572059 3.67126529 4.87333217 4.5 7.3125 C4.73847656 8.00279297 4.97695312 8.69308594 5.22265625 9.40429688 C6.23208263 12.38931489 7 14.82658914 7 18 C3.04 18 -0.92 18 -5 18 C-4.42934122 11.58008874 -2.32655091 5.98410537 0 0 Z " fill="#0A0B20" transform="translate(151,432)"/>
<path d="M0 0 C1.65322266 0.01740234 1.65322266 0.01740234 3.33984375 0.03515625 C4.99693359 0.04869141 4.99693359 0.04869141 6.6875 0.0625 C7.54214844 0.07410156 8.39679688 0.08570313 9.27734375 0.09765625 C9.27734375 3.09765625 9.27734375 3.09765625 7.9140625 4.921875 C3.78158843 8.87215583 1.10725491 10.56532397 -4.72265625 10.53515625 C-6.39199548 10.42401818 -8.06072904 10.29012208 -9.72265625 10.09765625 C-9.41015625 8.16015625 -9.41015625 8.16015625 -8.72265625 6.09765625 C-7.73265625 5.76765625 -6.74265625 5.43765625 -5.72265625 5.09765625 C-4.57257315 3.1309271 -4.57257315 3.1309271 -3.72265625 1.09765625 C-2.72265625 0.09765625 -2.72265625 0.09765625 0 0 Z " fill="#E9B810" transform="translate(463.72265625,319.90234375)"/>
<path d="M0 0 C2.26546852 3.39820279 3.38901628 6.83942278 4.625 10.6875 C4.85445313 11.38939453 5.08390625 12.09128906 5.3203125 12.81445312 C5.88429209 14.54164062 6.44269339 16.27064782 7 18 C2.71 18 -1.58 18 -6 18 C-4.37727326 11.74091114 -2.73384207 5.85823301 0 0 Z " fill="#090B22" transform="translate(406,432)"/>
<path d="M0 0 C-0.75373597 3.98527064 -2.29595014 6.02351133 -5.16796875 8.8046875 C-8.41218242 10.92138128 -11.23739914 10.38923457 -15 10 C-15 5.36585366 -15 5.36585366 -12.5625 2.75 C-8.74826009 -0.89044961 -5.00594697 -0.60071364 0 0 Z " fill="#E5B60F" transform="translate(419,401)"/>
<path d="M0 0 C0.33 0 0.66 0 1 0 C1 28.71 1 57.42 1 87 C-0.65 86.34 -2.3 85.68 -4 85 C-2.02 84.505 -2.02 84.505 0 84 C0 56.28 0 28.56 0 0 Z " fill="#14121A" transform="translate(278,124)"/>
<path d="M0 0 C4.29 0 8.58 0 13 0 C13 0.33 13 0.66 13 1 C9.04 1 5.08 1 1 1 C1 12.22 1 23.44 1 35 C-2.48048937 31.51951063 -4.03043666 29.33303934 -6 25 C-4.35 25 -2.7 25 -1 25 C-0.67 16.75 -0.34 8.5 0 0 Z " fill="#110C0D" transform="translate(425,334)"/>
<path d="M0 0 C0.33 0 0.66 0 1 0 C1.33 18.15 1.66 36.3 2 55 C4.31 55.33 6.62 55.66 9 56 C9 56.33 9 56.66 9 57 C2.84765625 57.87890625 2.84765625 57.87890625 1 58 C0 57 0 57 -0.12025452 54.71580505 C-0.11803391 53.70542679 -0.11581329 52.69504852 -0.11352539 51.65405273 C-0.11344986 50.5129454 -0.11337433 49.37183807 -0.11329651 48.19615173 C-0.10813522 46.9545076 -0.10297394 45.71286346 -0.09765625 44.43359375 C-0.0962413 43.16983414 -0.09482635 41.90607452 -0.09336853 40.60401917 C-0.08870582 37.23875111 -0.0797148 33.8735501 -0.06866455 30.50830078 C-0.05844846 27.0765033 -0.05387049 23.64469891 -0.04882812 20.21289062 C-0.0377738 13.47524176 -0.0210171 6.73762475 0 0 Z " fill="#000527" transform="translate(450,335)"/>
<path d="M0 0 C1.27875 -0.061875 2.5575 -0.12375 3.875 -0.1875 C4.95394531 -0.23970703 4.95394531 -0.23970703 6.0546875 -0.29296875 C6.69664062 -0.19628906 7.33859375 -0.09960938 8 0 C8.66 0.99 9.32 1.98 10 3 C12.05925139 3.72382467 12.05925139 3.72382467 14 4 C13.67 4.99 13.34 5.98 13 7 C9.62112287 7.28527105 6.36826645 7.45018698 3 7 C0.81817659 4.56149148 0 3.2678851 0 0 Z " fill="#FBC105" transform="translate(444,402)"/>
<path d="M0 0 C10.03943218 -0.44952681 10.03943218 -0.44952681 14 3 C14 3.99 14 4.98 14 6 C12.68 5.67 11.36 5.34 10 5 C10 4.01 10 3.02 10 2 C7.03 1.67 4.06 1.34 1 1 C1.14084796 2.79206547 1.28783701 4.58364917 1.4375 6.375 C1.51871094 7.37273437 1.59992188 8.37046875 1.68359375 9.3984375 C1.84965626 11.97927613 1.84965626 11.97927613 3 14 C6.3 13.67 9.6 13.34 13 13 C12.67 13.66 12.34 14.32 12 15 C8.04 15 4.08 15 0 15 C0 10.05 0 5.1 0 0 Z " fill="#0B0611" transform="translate(452,426)"/>
<path d="M0 0 C0.33 0 0.66 0 1 0 C1.33 3.96 1.66 7.92 2 12 C2.99 11.34 3.98 10.68 5 10 C5.8125 12.625 5.8125 12.625 6 16 C4.59075699 18.41584517 3.006987 19.993013 1 22 C0.67 22 0.34 22 0 22 C0 14.74 0 7.48 0 0 Z " fill="#201E18" transform="translate(104,335)"/>
<path d="M0 0 C0.66 0 1.32 0 2 0 C3.28006797 1.78398614 4.47660351 3.62853906 5.625 5.5 C6.25664063 6.5209375 6.88828125 7.541875 7.5390625 8.59375 C8.02117187 9.3878125 8.50328125 10.181875 9 11 C8.01 11.33 7.02 11.66 6 12 C5.67 11.01 5.34 10.02 5 9 C4.01 9.99 3.02 10.98 2 12 C1.34 11.01 0.68 10.02 0 9 C0.875 6.3125 0.875 6.3125 2 4 C0.35 4 -1.3 4 -3 4 C-1.625 2 -1.625 2 0 0 Z " fill="#0F0F21" transform="translate(95,449)"/>
<path d="M0 0 C5 5 5 5 6 8 C4.35 7.67 2.7 7.34 1 7 C1 15.58 1 24.16 1 33 C0.67 33 0.34 33 0 33 C0 22.11 0 11.22 0 0 Z " fill="#110F10" transform="translate(403,357)"/>
<path d="M0 0 C4.42864971 0.5061314 6.84889946 1.84889946 10 5 C12.6280477 9.80298373 13.51460602 13.54517623 13 19 C12.34 20.32 11.68 21.64 11 23 C10.67 18.38 10.34 13.76 10 9 C9.34 9 8.68 9 8 9 C7.566875 8.21625 7.13375 7.4325 6.6875 6.625 C4.73201719 3.58313785 3.39788151 3.01018099 0 2 C0 1.34 0 0.68 0 0 Z " fill="#1E171A" transform="translate(353,427)"/>
<path d="M0 0 C1.90389849 2.85584773 2.69462177 4.9311762 3.625 8.1875 C3.88539063 9.08855469 4.14578125 9.98960937 4.4140625 10.91796875 C4.60742188 11.60503906 4.80078125 12.29210937 5 13 C4.01 13.495 4.01 13.495 3 14 C2.67 11.69 2.34 9.38 2 7 C1.67 7.99 1.34 8.98 1 10 C0.34 10 -0.32 10 -1 10 C-1.33 10.66 -1.66 11.32 -2 12 C-2.66 12 -3.32 12 -4 12 C-3.52309796 10.37433394 -3.04340334 8.74948689 -2.5625 7.125 C-2.29566406 6.22007812 -2.02882813 5.31515625 -1.75390625 4.3828125 C-1 2 -1 2 0 0 Z " fill="#191416" transform="translate(406,432)"/>
<path d="M0 0 C0.33 0 0.66 0 1 0 C1.1953125 6.0546875 1.1953125 6.0546875 1 8 C0.34 8.66 -0.32 9.32 -1 10 C-0.67 10.99 -0.34 11.98 0 13 C-0.99 13.495 -0.99 13.495 -2 14 C-3.625 11.8125 -3.625 11.8125 -5 9 C-4.12908117 5.42923278 -2.37122313 2.78360976 0 0 Z " fill="#15131C" transform="translate(122,352)"/>
<path d="M0 0 C0.66 0 1.32 0 2 0 C2.66 2.64 3.32 5.28 4 8 C2.02 8.66 0.04 9.32 -2 10 C-2 10.99 -2 11.98 -2 13 C-2.66 13 -3.32 13 -4 13 C-3.52140759 11.39566191 -3.04210442 9.79153584 -2.5625 8.1875 C-2.29566406 7.29417969 -2.02882812 6.40085937 -1.75390625 5.48046875 C-1.19612127 3.64526945 -0.60655425 1.81966274 0 0 Z " fill="#261F18" transform="translate(151,432)"/>
<path d="M0 0 C-4.45029503 3.52954433 -7.54880215 4.12313116 -13.1875 4.0625 C-14.81751953 4.04896484 -14.81751953 4.04896484 -16.48046875 4.03515625 C-17.31191406 4.02355469 -18.14335937 4.01195312 -19 4 C-19 3.67 -19 3.34 -19 3 C-16.03 3 -13.06 3 -10 3 C-9.67 2.01 -9.34 1.02 -9 0 C-5.62182575 -0.84454356 -3.32534757 -1.10844919 0 0 Z " fill="#0C0B1B" transform="translate(363,454)"/>
<path d="M0 0 C0.33 0 0.66 0 1 0 C1 10.89 1 21.78 1 33 C0.01 32.34 -0.98 31.68 -2 31 C-2 30.34 -2 29.68 -2 29 C-1.34 29 -0.68 29 0 29 C0 19.43 0 9.86 0 0 Z " fill="#140F07" transform="translate(306,416)"/>
<path d="M0 0 C3 1 3 1 4.1875 2.75 C6.23953846 8.43256804 4.17027255 12.66474665 2 18 C1.34 18 0.68 18 0 18 C0.16242188 17.443125 0.32484375 16.88625 0.4921875 16.3125 C1.04222447 13.80771628 1.13281256 11.562519 1.125 9 C1.12886719 7.7315625 1.12886719 7.7315625 1.1328125 6.4375 C1.00833711 4.15301056 0.63877457 2.19008426 0 0 Z " fill="#120F1A" transform="translate(478,425)"/>
<path d="M0 0 C2.6486859 3.19668988 4.93992341 6.39486597 7 10 C6.01 10.33 5.02 10.66 4 11 C4 10.34 4 9.68 4 9 C2.68 8.67 1.36 8.34 0 8 C-1.125 2.25 -1.125 2.25 0 0 Z " fill="#11121E" transform="translate(288,442)"/>
<path d="M0 0 C-0.33 1.98 -0.66 3.96 -1 6 C-1.66 6 -2.32 6 -3 6 C-4.98 2.535 -4.98 2.535 -7 -1 C-3.51418144 -2.2020064 -3.32007656 -2.21338437 0 0 Z " fill="#130F1C" transform="translate(127,463)"/>
<path d="M0 0 C0.33 0 0.66 0 1 0 C1.29359745 3.0534135 1.4451258 5.95743422 1 9 C-1.5 11.5625 -1.5 11.5625 -4 13 C-4.33 12.67 -4.66 12.34 -5 12 C-7.32817964 11.63239269 -9.6618385 11.29758419 -12 11 C-12 10.67 -12 10.34 -12 10 C-6.555 9.505 -6.555 9.505 -1 9 C-0.67 6.03 -0.34 3.06 0 0 Z " fill="#C89E14" transform="translate(467,431)"/>
<path d="M0 0 C3.96 0 7.92 0 12 0 C12.33 0.99 12.66 1.98 13 3 C8.38 3 3.76 3 -1 3 C-0.67 2.01 -0.34 1.02 0 0 Z " fill="#050C2E" transform="translate(401,411)"/>
<path d="M0 0 C2.64 0 5.28 0 8 0 C8 0.99 8 1.98 8 3 C6.02 3.66 4.04 4.32 2 5 C1.34 3.35 0.68 1.7 0 0 Z " fill="#F3C111" transform="translate(444,402)"/>
<path d="M0 0 C0 0.99 0 1.98 0 3 C3.465 2.505 3.465 2.505 7 2 C6.67 2.66 6.34 3.32 6 4 C3.24921116 4.91692961 1.64051087 5.10886083 -1.1875 5.0625 C-3.0746875 5.0315625 -3.0746875 5.0315625 -5 5 C-5 4.01 -5 3.02 -5 2 C-2 0 -2 0 0 0 Z " fill="#1B1920" transform="translate(164,374)"/>
<path d="M0 0 C0.66 0.33 1.32 0.66 2 1 C1.34 2.65 0.68 4.3 0 6 C-0.33 6 -0.66 6 -1 6 C-1.33 8.97 -1.66 11.94 -2 15 C-2.33 15 -2.66 15 -3 15 C-3 10.38 -3 5.76 -3 1 C-2.01 0.67 -1.02 0.34 0 0 Z " fill="#030B2C" transform="translate(96,452)"/>
<path d="M0 0 C2.05078125 0.03255208 4.1015625 0.06510417 6.15234375 0.09765625 C6.15234375 0.75765625 6.15234375 1.41765625 6.15234375 2.09765625 C3.15234375 4.09765625 3.15234375 4.09765625 -0.84765625 4.09765625 C-0.84765625 3.43765625 -0.84765625 2.77765625 -0.84765625 2.09765625 C-1.50765625 1.76765625 -2.16765625 1.43765625 -2.84765625 1.09765625 C-1.84765625 0.09765625 -1.84765625 0.09765625 0 0 Z " fill="#F5C109" transform="translate(466.84765625,320.90234375)"/>
<path d="M0 0 C9.8877551 -0.58163265 9.8877551 -0.58163265 14 3 C14 3.99 14 4.98 14 6 C12.68 5.67 11.36 5.34 10 5 C10 4.01 10 3.02 10 2 C6.7 1.67 3.4 1.34 0 1 C0 0.67 0 0.34 0 0 Z " fill="#312618" transform="translate(452,426)"/>
<path d="M0 0 C0.66 0 1.32 0 2 0 C2.66 1.65 3.32 3.3 4 5 C2.68 5 1.36 5 0 5 C0 6.65 0 8.3 0 10 C-0.33 10 -0.66 10 -1 10 C-1.9765625 3.9453125 -1.9765625 3.9453125 -2 2 C-1.34 1.34 -0.68 0.68 0 0 Z " fill="#11111E" transform="translate(107,369)"/>
<path d="M0 0 C0.66 0 1.32 0 2 0 C2 1.98 2 3.96 2 6 C0.35 6.33 -1.3 6.66 -3 7 C-1.125 1.125 -1.125 1.125 0 0 Z " fill="#040927" transform="translate(383,448)"/>
<path d="M0 0 C0.33 1.32 0.66 2.64 1 4 C-1.3125 6.0625 -1.3125 6.0625 -4 8 C-4.99 7.67 -5.98 7.34 -7 7 C-4.66666667 4.66666667 -2.33333333 2.33333333 0 0 Z " fill="#12101A" transform="translate(183,382)"/>
<path d="M0 0 C1.65 0 3.3 0 5 0 C5.33 1.98 5.66 3.96 6 6 C5.01 6 4.02 6 3 6 C2.01 4.02 1.02 2.04 0 0 Z " fill="#14131C" transform="translate(419,359)"/>
<path d="M0 0 C2 3 2 3 2 5 C1.34 5 0.68 5 0 5 C0 5.66 0 6.32 0 7 C-1.65 7.33 -3.3 7.66 -5 8 C-3.62845496 5.04590299 -2.01136276 2.55991624 0 0 Z " fill="#131019" transform="translate(130,342)"/>
<path d="M0 0 C1.27351308 2.54702616 0.80191925 3.4282945 0.0625 6.125 C-0.13214844 6.84945313 -0.32679687 7.57390625 -0.52734375 8.3203125 C-0.68332031 8.87460937 -0.83929688 9.42890625 -1 10 C-1.99 9.01 -2.98 8.02 -4 7 C-2.79618552 4.50638429 -1.54571278 2.31856917 0 0 Z " fill="#171118" transform="translate(109,434)"/>
<path d="M0 0 C1.32 0 2.64 0 4 0 C4 0.66 4 1.32 4 2 C3.01 2.495 3.01 2.495 2 3 C1.53101037 5.8159849 1.53101037 5.8159849 1.375 9.0625 C1.30023438 10.16722656 1.22546875 11.27195312 1.1484375 12.41015625 C1.09945313 13.26480469 1.05046875 14.11945313 1 15 C0.67 15 0.34 15 0 15 C0 10.05 0 5.1 0 0 Z " fill="#01082B" transform="translate(453,453)"/>
<path d="M0 0 C0.33 0.66 0.66 1.32 1 2 C1.66 2 2.32 2 3 2 C3 3.32 3 4.64 3 6 C3.66 6.66 4.32 7.32 5 8 C4.34 8.66 3.68 9.32 3 10 C-1.06153846 4.58461538 -1.06153846 4.58461538 -0.75 1.625 C-0.5025 1.08875 -0.255 0.5525 0 0 Z " fill="#14111D" transform="translate(478,459)"/>
<path d="M0 0 C1.00000429 4.00001715 0.80688405 6.05523353 0 10 C-1.32 9.67 -2.64 9.34 -4 9 C-2.68 6.03 -1.36 3.06 0 0 Z " fill="#11101A" transform="translate(378,358)"/>
<path d="M0 0 C1.98 0 3.96 0 6 0 C6 1.32 6 2.64 6 4 C5.01 4.66 4.02 5.32 3 6 C2.814375 5.071875 2.814375 5.071875 2.625 4.125 C2.12802644 1.80879168 2.12802644 1.80879168 0 0 Z " fill="#CFA615" transform="translate(461,401)"/>
<path d="M0 0 C1.44010481 0.25662245 2.8770687 0.53090821 4.3125 0.8125 C5.11300781 0.96332031 5.91351563 1.11414063 6.73828125 1.26953125 C9.23445587 2.07572236 10.32422106 3.02052002 12 5 C10.35 5 8.7 5 7 5 C7 4.34 7 3.68 7 3 C4.69 2.34 2.38 1.68 0 1 C0 0.67 0 0.34 0 0 Z " fill="#E3B919" transform="translate(361,335)"/>
<path d="M0 0 C1.625 2.5 1.625 2.5 3 5 C2.01 5.495 2.01 5.495 1 6 C0.34 5.34 -0.32 4.68 -1 4 C-3.06874034 3.3574765 -3.06874034 3.3574765 -5 3 C-2.25 0 -2.25 0 0 0 Z " fill="#241D18" transform="translate(97,449)"/>
<path d="M0 0 C0.33 0.99 0.66 1.98 1 3 C1.66 3 2.32 3 3 3 C3.66 5.31 4.32 7.62 5 10 C4.34 10 3.68 10 3 10 C3 9.01 3 8.02 3 7 C2.34 7 1.68 7 1 7 C0.67 4.69 0.34 2.38 0 0 Z " fill="#100F1B" transform="translate(278,371)"/>
<path d="M0 0 C1.65 0 3.3 0 5 0 C4.67 1.98 4.34 3.96 4 6 C0 1.125 0 1.125 0 0 Z " fill="#14111C" transform="translate(472,454)"/>
<path d="M0 0 C1.70884005 1.62339805 3.37446717 3.29319053 5 5 C5 5.66 5 6.32 5 7 C3.68 6.67 2.36 6.34 1 6 C0.67 4.02 0.34 2.04 0 0 Z " fill="#EDBE10" transform="translate(124,372)"/>
<path d="M0 0 C0.99 0 1.98 0 3 0 C3.66 1.98 4.32 3.96 5 6 C4.01 6.33 3.02 6.66 2 7 C0 4 0 4 0 0 Z " fill="#14141F" transform="translate(293,370)"/>
<path d="M0 0 C0.144375 0.61875 0.28875 1.2375 0.4375 1.875 C0.93152225 4.03258322 0.93152225 4.03258322 2 6 C0.02 6.33 -1.96 6.66 -4 7 C-2.79618552 4.50638429 -1.54571278 2.31856917 0 0 Z " fill="#191517" transform="translate(135,335)"/>
<path d="M0 0 C0 0.33 0 0.66 0 1 C-1.98 1 -3.96 1 -6 1 C-6.33 1.99 -6.66 2.98 -7 4 C-7.66 4 -8.32 4 -9 4 C-6.73455663 -1.01633889 -5.27613404 -1.24961069 0 0 Z " fill="#DEDBD4" transform="translate(289,117)"/>
<path d="M0 0 C2.34058637 2.12780579 3.70700306 4.11562221 5 7 C3.35 7 1.7 7 0 7 C0 4.69 0 2.38 0 0 Z " fill="#130F1B" transform="translate(362,382)"/>
<path d="M0 0 C0.99 0.33 1.98 0.66 3 1 C0.03 3.475 0.03 3.475 -3 6 C-3.66 5.67 -4.32 5.34 -5 5 C-3.35 3.35 -1.7 1.7 0 0 Z " fill="#DCD8D1" transform="translate(382,77)"/>
</svg>
